<?xml version="1.0" standalone="no"?>
<!DOCTYPE svg PUBLIC "-//W3C//DTD SVG 20010904//EN"
 "http://www.w3.org/TR/2001/REC-SVG-20010904/DTD/svg10.dtd">
<svg version="1.0" xmlns="http://www.w3.org/2000/svg"
 width="1284.000000pt" height="1245.000000pt" viewBox="0 0 1284.000000 1245.000000"
 preserveAspectRatio="xMidYMid meet">

<g transform="translate(0.000000,1245.000000) scale(0.100000,-0.100000)"
fill="#000000" stroke="none">
<path d="M6200 12360 c-220 -19 -457 -92 -643 -197 -33 -18 -62 -33 -65 -33
-8 -1 -98 -67 -175 -130 -49 -40 -222 -213 -772 -776 -82 -84 -294 -298 -470
-476 -364 -368 -455 -468 -425 -468 5 0 10 5 10 10 0 6 5 10 10 10 21 0 899
878 1360 1360 158 165 393 380 416 380 3 0 40 23 80 50 40 28 78 50 83 50 5 0
26 9 48 20 257 130 563 177 888 135 102 -13 264 -52 310 -74 11 -6 49 -21 85
-35 65 -25 255 -129 320 -176 78 -55 134 -107 430 -400 319 -315 1103 -1074
1185 -1146 17 -15 64 -59 106 -98 102 -95 151 -136 164 -135 5 0 4 3 -2 6 -7
2 -13 11 -13 19 0 8 -7 14 -15 14 -8 0 -14 4 -12 8 2 8 -28 45 -68 83 -11 10
-86 83 -166 161 -80 79 -244 238 -364 353 -271 260 -311 299 -736 720 -315
312 -467 450 -544 494 -16 9 -58 33 -93 54 -35 20 -66 37 -68 37 -2 0 -35 15
-74 34 -139 68 -363 131 -500 141 -167 12 -206 12 -290 5z"/>
<path d="M6333 11961 c-67 -7 -78 -12 -70 -36 5 -11 22 -15 66 -15 56 0 61 -2
67 -25 3 -14 2 -89 -2 -168 l-9 -142 -55 -1 c-31 0 -61 -4 -68 -8 -13 -8 -17
-36 -4 -37 66 -6 260 -3 270 4 8 6 12 6 12 -2 0 -17 40 -13 46 4 12 31 -16 46
-80 43 l-61 -3 0 188 c0 156 -3 189 -15 197 -8 5 -19 9 -25 8 -5 0 -38 -4 -72
-7z"/>
<path d="M6470 10899 c-63 -4 -157 -9 -208 -10 -112 -4 -116 -8 -119 -119 0
-41 -3 -84 -5 -95 -2 -16 3 -21 27 -23 38 -5 55 19 55 78 0 72 15 80 156 85
66 3 127 2 137 -1 30 -9 20 -44 -16 -59 -19 -8 -49 -32 -68 -54 -19 -23 -63
-69 -98 -104 -56 -55 -111 -137 -111 -167 0 -14 67 -13 76 2 4 6 2 14 -4 16
-21 7 -13 18 23 31 42 15 67 5 39 -16 -17 -13 -14 -14 33 -8 40 5 67 2 122
-16 66 -21 71 -25 96 -72 14 -27 28 -72 31 -100 5 -45 2 -56 -20 -86 -14 -19
-26 -43 -26 -52 0 -22 -53 -67 -108 -91 -40 -18 -52 -19 -150 -8 -113 12 -132
22 -132 67 0 14 6 23 15 23 40 0 46 80 9 117 -22 22 -32 25 -70 20 -25 -2 -48
-8 -52 -12 -13 -13 -8 -186 6 -198 7 -6 19 -22 27 -37 18 -35 79 -76 140 -95
74 -22 226 -11 281 21 22 13 48 24 57 24 9 0 21 10 28 23 6 12 27 39 47 59 30
32 34 41 29 72 -5 29 -2 38 14 46 10 6 19 21 19 33 0 44 -29 159 -44 176 -9
10 -16 25 -16 34 0 9 -4 17 -10 17 -5 0 -10 7 -10 15 0 8 -6 15 -13 15 -7 0
-23 13 -35 30 -12 16 -35 33 -50 36 -38 10 -92 53 -92 74 0 26 57 99 94 121
49 29 108 122 100 157 -12 46 -3 45 -204 31z m-115 -49 c-3 -5 -11 -10 -16
-10 -6 0 -7 5 -4 10 3 6 11 10 16 10 6 0 7 -4 4 -10z"/>
<path d="M3610 10260 c0 -5 5 -10 10 -10 6 0 10 5 10 10 0 6 -4 10 -10 10 -5
0 -10 -4 -10 -10z"/>
<path d="M9190 10179 c0 -5 5 -7 10 -4 6 3 10 8 10 11 0 2 -4 4 -10 4 -5 0
-10 -5 -10 -11z"/>
<path d="M8510 9943 c-147 -8 -390 -46 -510 -80 -108 -30 -364 -114 -374 -122
-6 -5 -47 -23 -91 -41 -44 -18 -114 -48 -155 -68 -41 -19 -119 -54 -173 -78
-194 -86 -471 -245 -699 -402 -128 -89 -203 -132 -230 -132 -7 0 -47 21 -88
46 -95 60 -240 144 -246 144 -3 0 -25 13 -48 29 -125 86 -712 357 -966 445
-58 20 -125 46 -150 56 -76 33 -278 87 -415 110 -178 31 -394 32 -555 2 -106
-20 -351 -93 -375 -112 -6 -5 -44 -26 -86 -48 -315 -164 -522 -409 -607 -717
-48 -176 -57 -245 -56 -435 1 -419 134 -937 370 -1439 24 -51 44 -96 44 -99 0
-11 122 -248 167 -322 24 -41 50 -84 56 -95 14 -24 99 -158 150 -236 61 -95
62 -101 21 -177 -19 -37 -49 -89 -66 -117 -30 -48 -122 -205 -159 -272 -10
-17 -30 -50 -44 -72 -41 -65 -183 -348 -222 -441 -19 -47 -48 -112 -63 -145
-80 -172 -206 -610 -225 -780 -4 -33 -11 -80 -17 -105 -16 -75 -12 -384 6
-484 57 -316 180 -558 377 -740 149 -139 364 -239 649 -303 105 -24 134 -26
345 -26 259 -1 300 5 649 93 138 35 463 156 626 232 47 22 105 48 130 58 77
31 299 145 440 226 74 42 180 103 235 134 55 31 125 72 155 92 83 53 139 79
171 80 19 1 53 -16 100 -48 40 -27 88 -60 108 -74 20 -13 74 -45 121 -70 47
-25 132 -74 190 -107 107 -62 578 -297 750 -373 232 -104 436 -168 646 -205
105 -19 320 -22 409 -6 199 34 248 46 340 77 201 70 366 175 530 339 105 105
117 118 176 211 118 182 182 382 210 662 10 97 10 157 0 295 -19 281 -54 435
-165 727 -72 194 -369 751 -472 887 -13 17 -24 34 -24 37 0 6 -2 9 -150 230
-44 66 -80 127 -80 137 0 9 26 54 57 100 147 218 182 272 273 434 57 100 269
524 280 560 7 22 16 45 20 50 4 6 18 37 30 70 13 33 36 94 52 135 93 240 151
464 188 727 13 93 13 320 -1 403 -64 401 -242 694 -546 896 -144 96 -293 158
-493 205 -83 20 -360 50 -430 47 -19 -1 -60 -3 -90 -5z m532 -416 c6 -9 8 -9
8 1 0 17 41 15 67 -3 32 -23 81 -131 92 -205 6 -36 9 -130 6 -209 -3 -132 -6
-145 -26 -167 -20 -21 -21 -27 -9 -49 10 -19 11 -37 1 -87 -6 -35 -14 -78 -16
-96 -12 -76 -32 -133 -58 -161 -15 -17 -32 -31 -38 -31 -5 0 -3 -10 5 -22 16
-23 21 -69 10 -81 -11 -11 -43 -110 -44 -134 0 -12 -4 -24 -9 -28 -5 -3 -12
-19 -16 -35 -4 -17 -10 -30 -14 -30 -4 0 -7 -10 -8 -21 -1 -12 -8 -29 -16 -38
-13 -15 -29 -50 -28 -61 1 -3 8 -4 16 -4 8 1 29 2 45 3 23 1 30 6 30 20 0 11
-4 22 -9 26 -13 7 -9 26 29 131 17 49 36 105 41 124 17 58 41 103 65 123 20
15 22 21 12 49 -9 25 -8 42 5 82 10 28 23 93 31 144 8 51 20 100 28 109 8 10
14 57 16 137 2 66 4 130 4 141 1 11 0 74 -1 140 -3 184 -3 192 15 199 8 3 12
2 9 -4 -3 -6 -1 -10 6 -10 8 0 8 -4 -1 -15 -11 -13 -8 -15 13 -15 103 0 178
-113 199 -300 14 -123 7 -223 -16 -249 -15 -17 -16 -23 -6 -36 7 -8 9 -15 4
-15 -5 0 -2 -5 6 -10 10 -7 12 -12 4 -17 -6 -5 -14 -35 -17 -68 -17 -160 -25
-200 -47 -217 -12 -10 -32 -18 -43 -18 -20 0 -20 0 2 -21 19 -18 22 -29 18
-65 -2 -23 -14 -56 -26 -72 -11 -17 -21 -39 -21 -49 0 -25 -79 -183 -91 -183
-5 0 -14 -20 -20 -45 -6 -24 -32 -77 -56 -117 -25 -40 -66 -109 -91 -153 -24
-44 -49 -81 -53 -83 -5 -2 -9 -8 -9 -13 0 -13 -46 -56 -82 -77 -24 -14 -27
-20 -22 -53 4 -20 1 -47 -5 -60 -12 -23 -11 -23 3 -5 9 11 16 17 16 13 0 -13
54 55 102 128 72 111 158 250 158 258 0 4 15 30 33 59 31 49 68 121 112 223
10 22 28 62 41 89 13 28 24 56 24 63 0 7 4 21 9 31 28 54 44 107 43 141 -1 22
5 56 13 76 9 20 22 98 30 173 8 75 17 157 19 182 3 25 8 115 11 200 4 85 9
157 11 160 10 10 44 -46 69 -116 59 -160 62 -393 9 -582 -8 -29 -12 -57 -8
-64 4 -7 3 -8 -5 -4 -7 5 -13 -3 -17 -24 -4 -17 -11 -33 -15 -36 -5 -3 -8 -20
-8 -37 1 -24 3 -26 6 -9 2 12 9 20 14 17 5 -4 9 2 9 12 0 10 11 40 25 67 14
28 26 67 27 88 1 21 4 38 8 38 18 0 61 182 77 325 5 47 9 60 12 40 4 -30 4
-30 11 -5 7 23 8 22 9 -9 1 -18 8 -59 16 -90 17 -68 19 -118 11 -311 -7 -155
-23 -287 -37 -296 -5 -3 -9 -16 -9 -29 0 -13 -4 -26 -8 -29 -4 -2 -9 -19 -10
-38 -3 -40 -21 -98 -31 -98 -3 0 -8 -12 -9 -27 -1 -15 -6 -29 -11 -32 -5 -3
-12 -22 -16 -41 -10 -45 -55 -140 -66 -140 -5 0 -9 -11 -9 -24 0 -13 -7 -37
-15 -52 -8 -16 -15 -36 -15 -45 0 -8 -5 -20 -11 -26 -5 -5 -11 -21 -13 -35 -1
-14 -12 -35 -23 -47 -11 -12 -23 -39 -27 -60 -4 -26 -13 -41 -31 -51 -18 -9
-23 -19 -20 -34 6 -22 -28 -86 -45 -86 -5 0 -10 -5 -10 -11 0 -5 5 -7 10 -4
20 12 9 -21 -16 -48 -14 -15 -31 -42 -39 -61 -8 -18 -21 -38 -29 -46 -9 -7
-16 -21 -16 -31 0 -10 -9 -24 -20 -31 -11 -7 -20 -21 -20 -31 0 -25 -42 -97
-57 -97 -6 0 -14 -8 -18 -19 -5 -16 -16 -31 -55 -78 -5 -7 -10 -19 -10 -28 0
-8 -4 -15 -10 -15 -5 0 -10 -7 -10 -16 0 -9 -6 -28 -14 -42 -8 -15 -17 -34
-20 -42 -6 -16 -28 -52 -36 -60 -8 -8 -27 -41 -50 -86 -16 -33 -25 -41 -40
-37 -11 3 -20 9 -20 13 0 4 -44 52 -97 107 -163 168 -178 189 -169 233 5 29 4
30 -28 30 -28 0 -36 5 -46 30 -7 17 -18 30 -26 30 -16 0 -53 38 -162 166 -29
34 -52 71 -52 82 0 18 63 82 82 82 4 0 -1 9 -12 20 -28 28 -25 47 16 147 20
49 45 115 56 148 11 33 27 78 37 100 10 22 21 49 25 61 7 23 74 89 82 81 6 -6
101 26 112 38 4 4 -1 5 -11 2 -10 -4 -32 -7 -48 -7 -18 0 -28 -4 -24 -10 4 -6
-7 -10 -25 -10 -44 0 -57 37 -31 88 10 20 26 72 36 114 29 132 70 229 112 265
34 30 36 34 21 43 -20 12 -23 46 -7 87 6 15 25 86 44 157 18 70 39 135 47 142
10 10 52 16 146 19 73 2 140 9 150 14 17 11 5 12 -179 15 -89 1 -104 14 -94
81 4 27 10 73 14 100 7 59 27 91 61 98 24 4 24 4 -3 6 -33 1 -48 32 -42 88 2
21 4 84 4 141 l1 102 62 -5 c35 -4 66 -12 70 -18z m-240 -4 c25 -31 37 -70 48
-158 12 -95 7 -131 -21 -146 -23 -12 -25 -29 -4 -29 23 0 28 -44 15 -130 -12
-80 -42 -138 -76 -150 -13 -5 -12 -9 5 -31 19 -25 19 -28 5 -80 -9 -30 -19
-74 -24 -99 -8 -48 -24 -103 -39 -135 -5 -11 -15 -35 -21 -53 -8 -21 -25 -38
-47 -48 l-34 -17 21 -20 c25 -22 24 -23 -15 -147 -15 -47 -36 -117 -46 -155
-27 -95 -57 -147 -96 -165 -39 -18 -41 -26 -8 -34 43 -11 37 -36 -59 -258 -8
-18 -17 -45 -20 -61 -4 -15 -17 -51 -30 -80 -12 -28 -28 -66 -35 -84 -24 -61
-46 -53 -153 57 -108 110 -121 137 -89 172 21 22 21 23 2 29 -33 13 -34 29 -6
59 21 22 26 35 21 55 -6 25 20 131 49 200 7 17 20 57 30 90 9 33 26 74 36 91
10 17 17 41 14 53 -3 16 5 33 25 54 27 29 28 33 13 49 -13 15 -14 24 -4 60 46
163 64 228 71 263 16 77 31 114 59 144 25 27 36 31 79 31 50 0 94 11 147 36
29 14 29 15 -20 9 -99 -12 -125 -17 -131 -26 -3 -5 -16 -9 -29 -9 -41 0 -45
42 -14 157 11 43 32 95 46 115 21 31 23 40 13 58 -7 14 -9 36 -5 59 4 20 9 52
10 71 5 65 17 147 23 156 12 17 57 34 87 33 17 0 53 6 80 15 69 20 109 19 127
-1z m-390 -68 c11 -24 16 -69 17 -143 2 -113 -2 -124 -49 -156 -13 -9 -19 -16
-13 -16 30 0 34 -39 13 -127 -34 -140 -54 -175 -120 -205 -10 -4 -6 -7 12 -7
21 -1 29 -7 34 -26 3 -14 3 -33 -2 -42 -7 -18 -30 -103 -74 -273 -12 -46 -26
-94 -32 -105 -16 -30 -60 -75 -75 -75 -19 0 -16 -10 12 -31 13 -11 22 -25 20
-32 -24 -81 -56 -195 -71 -247 -9 -36 -21 -69 -26 -75 -4 -5 -8 -17 -8 -27 0
-27 -30 -111 -48 -130 -23 -27 -47 -22 -80 16 -17 19 -43 41 -59 49 -16 8 -49
34 -73 56 -42 38 -45 45 -44 88 1 26 6 49 13 51 6 2 11 15 11 28 0 30 -17 23
-30 -11 -6 -15 -20 -26 -41 -30 -27 -6 -36 -3 -51 15 -33 41 -17 67 49 77 42
7 124 45 141 66 8 10 5 17 -13 31 -31 23 -32 60 -5 144 11 33 24 87 29 119 21
134 42 197 77 229 37 34 42 44 19 44 -26 0 -37 47 -20 80 9 17 15 32 14 35 0
3 2 22 5 43 4 20 8 55 11 77 4 39 33 75 60 75 19 0 66 26 59 33 -4 3 -26 4
-50 0 -40 -5 -43 -4 -50 21 -6 25 2 222 11 249 2 7 6 24 9 39 6 25 8 27 27 15
17 -10 22 -9 35 8 11 15 26 20 63 20 27 0 47 2 45 4 -7 7 99 41 128 41 21 0
26 4 21 17 -4 11 -3 14 5 9 7 -4 20 -2 29 3 31 18 48 12 65 -24z m-4749 -31
c-1 -10 -13 -71 -27 -134 -15 -67 -26 -147 -26 -192 0 -77 -12 -127 -33 -140
-6 -3 -26 -5 -44 -2 -18 2 -45 -1 -60 -8 -32 -13 -82 -11 -100 4 -31 25 -3
251 41 336 27 52 64 88 110 107 25 11 46 23 46 28 0 5 7 4 15 -3 8 -7 15 -8
15 -3 0 12 41 33 55 29 6 -2 9 -12 8 -22z m177 -20 c0 -8 7 -14 15 -14 8 0 15
5 15 10 0 13 27 13 32 0 2 -6 39 -11 85 -11 l82 -1 7 -33 c6 -33 2 -60 -31
-215 -8 -41 -16 -91 -17 -110 -2 -71 -43 -109 -95 -89 -14 5 -80 12 -147 15
-74 4 -124 10 -129 17 -5 7 -6 57 -3 112 8 141 34 217 103 301 26 33 38 40 58
36 14 -2 25 -11 25 -18z m448 -50 c17 -4 32 -11 32 -15 0 -5 10 -9 23 -10 12
0 46 -8 76 -18 30 -10 76 -17 103 -16 l50 2 -7 -66 c-10 -98 -12 -111 -25
-165 -6 -28 -10 -78 -9 -112 3 -96 -19 -108 -144 -80 -108 24 -182 36 -229 36
-35 0 -51 6 -73 26 -26 24 -27 28 -20 87 9 87 30 160 66 236 40 86 66 114 99
107 14 -4 40 -9 58 -12z m3615 -37 c10 -16 18 -64 22 -150 l8 -126 -37 -37
c-40 -40 -42 -44 -23 -44 8 0 22 -9 32 -20 16 -17 16 -24 5 -65 -7 -25 -17
-48 -21 -51 -5 -3 -9 -23 -9 -46 0 -43 -25 -87 -69 -124 l-25 -21 22 -12 c34
-18 32 -47 -22 -236 -14 -49 -26 -115 -26 -145 0 -85 -5 -92 -80 -129 -97 -48
-100 -48 -244 79 -28 25 -68 58 -88 73 -26 19 -38 36 -38 53 0 18 -5 24 -22
24 -13 0 -35 8 -49 18 -14 9 -52 34 -83 55 -31 21 -62 49 -68 61 -6 14 -25 28
-47 35 -38 11 -87 45 -203 141 -36 30 -89 73 -116 95 -28 22 -55 52 -60 66
l-10 27 66 4 c72 4 136 33 110 49 -9 6 -8 9 7 9 26 1 53 22 48 37 -3 7 13 16
37 23 22 6 65 24 94 40 30 17 61 30 69 30 8 0 20 6 26 14 7 8 27 18 44 21 55
11 67 16 62 25 -3 5 8 11 25 15 16 4 32 11 35 16 4 5 23 9 45 9 24 0 40 5 44
15 3 8 13 15 22 15 9 0 28 6 42 13 15 8 42 21 60 30 19 9 38 17 44 17 5 0 24
6 41 14 18 7 54 22 81 31 27 10 61 24 74 31 14 7 29 11 34 8 4 -3 8 0 8 5 0 6
14 11 30 11 17 0 30 5 30 10 0 21 57 10 73 -13z m-4574 -11 c8 -13 10 -30 6
-36 -4 -7 -9 -87 -11 -177 -2 -91 -8 -172 -13 -181 -7 -12 -3 -25 12 -47 14
-19 24 -52 28 -90 3 -33 19 -123 35 -200 15 -77 27 -160 26 -185 -1 -26 4 -51
13 -60 7 -8 16 -28 20 -45 4 -16 15 -55 25 -85 10 -30 21 -68 24 -85 4 -16 16
-54 28 -84 l22 -54 -32 -27 c-18 -14 -32 -30 -32 -34 0 -4 18 -25 39 -47 22
-21 43 -49 47 -62 4 -12 26 -56 50 -98 59 -102 58 -109 -13 -111 -32 0 -64 -2
-71 -2 -7 -1 -24 -12 -37 -24 -34 -32 -55 -25 -85 30 -14 26 -34 57 -45 70
-31 35 -57 96 -53 125 2 20 14 33 47 50 25 13 52 30 61 38 9 8 22 15 28 15 18
0 2 31 -35 67 -18 18 -34 33 -37 33 -2 0 -2 -24 1 -52 l5 -53 -51 -27 c-28
-16 -57 -28 -65 -28 -8 0 -21 12 -29 28 -55 107 -87 158 -87 139 0 -22 44
-110 117 -230 46 -76 83 -141 83 -144 0 -3 15 -26 34 -52 87 -118 108 -149
132 -198 15 -29 30 -53 34 -53 4 0 12 -11 18 -24 6 -13 24 -39 40 -57 44 -50
114 -178 128 -234 4 -16 18 -40 31 -52 12 -13 29 -36 37 -51 8 -15 28 -40 45
-55 40 -37 49 -86 26 -137 -10 -22 -28 -46 -41 -55 -13 -8 -30 -28 -39 -44 -8
-16 -23 -32 -33 -36 -24 -7 -52 3 -52 20 0 7 -6 18 -14 24 -7 6 -11 22 -9 34
3 14 -2 31 -12 40 -9 9 -13 21 -10 27 3 5 -3 10 -14 10 -34 0 -51 11 -51 35 0
13 -7 25 -15 29 -9 3 -15 19 -16 38 0 18 -3 27 -6 21 -8 -22 -43 -15 -43 7 0
12 -7 32 -16 45 -9 14 -12 25 -8 25 5 0 1 7 -9 14 -10 8 -18 16 -17 18 1 1 -6
20 -14 40 -9 21 -16 42 -16 48 0 5 -3 10 -8 10 -4 0 -15 23 -25 50 -10 28 -22
50 -27 50 -4 0 -11 14 -15 30 -4 17 -12 30 -18 30 -10 0 -127 228 -147 285
-14 43 -63 135 -71 135 -5 0 -9 7 -9 15 0 18 -42 109 -52 113 -5 2 -8 14 -8
27 0 12 -11 42 -24 66 -27 50 -52 136 -42 146 12 12 35 -32 30 -59 -3 -20 1
-28 14 -32 11 -4 25 -18 32 -31 7 -14 17 -25 22 -25 11 0 10 3 -7 36 -8 16
-15 36 -15 45 0 8 -11 38 -25 65 -14 27 -25 56 -25 64 0 23 -25 89 -38 102 -7
7 -12 24 -12 38 0 26 -26 90 -41 100 -10 7 -29 188 -36 334 -4 80 -2 131 7
160 7 22 14 47 16 55 8 27 16 2 21 -71 9 -134 70 -441 85 -432 10 6 0 73 -13
90 -11 14 -17 399 -7 464 11 82 63 222 99 268 16 20 18 21 22 5 2 -10 2 -52 1
-93 -16 -333 -15 -351 33 -539 12 -51 23 -102 23 -114 0 -11 3 -17 7 -14 10
11 3 120 -9 134 -11 14 -6 203 7 241 6 18 4 22 -13 22 -26 0 -32 25 -20 86 5
27 13 74 17 104 5 30 14 68 20 83 6 16 11 39 11 51 0 28 28 88 47 99 7 4 13
12 13 18 0 10 41 57 51 58 3 1 11 -10 18 -23z m1411 -76 c11 -11 20 -18 20
-15 0 2 12 0 28 -6 15 -6 47 -13 72 -16 25 -3 50 -9 56 -14 6 -5 24 -10 40
-11 16 -1 36 -7 44 -13 8 -7 22 -13 30 -13 42 -2 60 -7 64 -19 3 -7 12 -13 21
-13 15 0 55 -19 65 -31 4 -5 95 -33 110 -34 3 0 10 -3 16 -7 6 -4 21 -9 35
-12 53 -10 58 -15 43 -44 -8 -15 -14 -31 -14 -37 0 -5 -16 -32 -35 -60 -75
-106 -104 -150 -131 -202 -33 -61 -50 -60 -213 14 -68 31 -174 66 -289 97 -50
13 -103 30 -119 38 -26 12 -28 17 -26 68 2 83 26 211 43 235 4 6 11 21 15 35
22 71 84 101 125 60z m-1138 -325 c4 -5 8 -28 8 -50 0 -49 28 -203 41 -227 5
-10 9 -29 9 -43 0 -14 6 -28 13 -31 8 -3 14 -24 16 -50 3 -64 -17 -84 -82 -84
-27 0 -67 -5 -89 -12 -35 -10 -41 -9 -57 8 -10 10 -26 57 -35 104 -10 47 -21
99 -27 116 -5 17 -9 45 -9 63 0 18 -5 41 -10 52 -15 28 -15 106 0 125 21 25
78 44 131 44 30 0 49 4 49 11 0 12 27 -5 42 -26z m1933 15 c3 -5 17 -10 29
-10 13 0 29 -6 35 -14 7 -8 30 -17 52 -21 21 -4 41 -10 44 -14 2 -5 26 -14 52
-21 69 -18 103 -33 103 -46 0 -7 -16 -31 -35 -54 -19 -23 -35 -45 -35 -49 0
-4 -17 -25 -37 -47 -21 -21 -50 -56 -66 -76 -39 -53 -98 -106 -124 -113 -13
-3 -45 5 -80 21 -126 58 -164 77 -169 85 -3 5 -13 9 -23 9 -19 0 -44 24 -54
51 -15 43 177 289 225 289 10 0 18 5 18 10 0 6 13 10 29 10 17 0 33 -4 36 -10z
m-1657 -16 c84 -6 102 -5 102 7 0 7 9 -3 20 -24 14 -25 20 -56 20 -97 0 -58
26 -245 36 -262 3 -4 13 -8 22 -7 11 0 12 2 4 6 -6 2 -9 9 -6 14 3 6 1 65 -6
132 -6 67 -12 136 -14 152 -5 55 25 66 117 46 23 -5 76 -15 117 -21 41 -6 95
-18 120 -25 110 -34 179 -53 230 -64 109 -25 227 -63 353 -114 156 -63 158
-67 94 -164 -24 -37 -59 -98 -77 -135 -47 -98 -63 -106 -136 -73 -91 42 -236
88 -319 101 -22 3 -43 8 -48 11 -10 6 -92 20 -245 42 -132 19 -172 34 -172 68
0 7 -4 13 -10 13 -5 0 -10 -8 -10 -18 0 -44 -26 -51 -182 -49 -171 3 -183 8
-191 85 -2 26 -7 60 -11 76 -13 54 -36 221 -36 258 0 46 20 59 80 54 25 -3 91
-8 148 -12z m2140 -190 c18 -4 34 -14 37 -25 4 -11 10 -17 14 -15 10 6 92 -50
84 -58 -4 -3 7 -3 24 0 20 4 43 0 62 -9 17 -8 45 -19 63 -22 18 -4 35 -11 38
-14 3 -4 21 -12 40 -17 43 -12 45 -33 5 -54 -16 -8 -32 -19 -34 -24 -8 -20
-80 -83 -100 -89 -14 -3 -30 2 -46 16 -13 12 -36 31 -51 42 -16 11 -42 32 -60
47 -60 52 -114 68 -114 34 0 -13 83 -87 142 -126 55 -36 51 -61 -17 -105 -31
-19 -61 -46 -67 -60 -14 -31 -58 -34 -96 -6 -15 10 -59 35 -98 55 -40 20 -77
43 -84 51 -7 8 -18 15 -24 15 -6 0 -31 10 -56 23 -57 28 -64 61 -23 103 15 16
41 47 58 69 37 50 91 98 158 141 52 34 85 40 145 28z m-768 -174 c0 -5 5 -10
10 -10 20 0 219 -103 237 -122 16 -18 16 -21 -2 -54 -10 -20 -27 -39 -36 -44
-9 -5 -29 -30 -43 -54 -14 -25 -32 -51 -39 -58 -7 -7 -23 -30 -36 -51 -33 -54
-54 -55 -157 -7 -49 23 -106 49 -126 59 -20 9 -39 24 -42 35 -5 19 50 129 110
223 19 28 34 55 34 60 0 19 25 33 57 33 18 0 33 -4 33 -10z m1344 -92 c22 -13
43 -26 44 -31 2 -4 7 -5 12 -2 4 2 15 -4 25 -15 10 -11 15 -20 12 -20 -4 0 8
-15 26 -34 25 -27 43 -35 84 -41 52 -7 52 -7 40 -33 -18 -44 -59 -81 -89 -82
-15 0 -30 5 -33 10 -3 6 -14 10 -23 10 -12 0 -13 -3 -4 -12 7 -7 12 -24 12
-38 0 -37 -18 -50 -69 -50 -35 0 -42 -3 -33 -12 26 -26 13 -55 -44 -98 -40
-30 -69 -44 -100 -48 -41 -4 -44 -3 -45 19 -1 17 -3 19 -6 7 -5 -19 -48 -25
-58 -8 -3 6 -19 10 -35 10 -20 0 -31 6 -35 21 -4 11 -21 27 -38 34 -18 7 -47
27 -66 44 -19 17 -43 31 -54 31 -27 0 -69 47 -65 74 2 12 10 20 18 18 71 -16
74 -16 65 4 -4 10 -10 31 -12 45 -4 22 0 28 26 37 17 6 31 16 31 22 0 6 11 16
25 22 21 9 30 7 62 -14 39 -27 83 -44 83 -33 0 3 -7 17 -16 31 -37 55 35 107
94 68 38 -26 74 -45 78 -41 7 7 -28 47 -40 47 -7 0 -18 11 -24 25 -15 32 -15
30 5 50 22 22 89 14 147 -17z m-2920 -49 c25 -12 43 -57 76 -189 13 -54 41
-123 53 -131 5 -4 10 -33 11 -65 1 -41 6 -65 19 -79 24 -26 16 -70 -17 -96
-21 -17 -24 -24 -16 -40 16 -29 40 -23 47 12 5 25 10 30 31 27 20 -2 33 -20
71 -94 26 -50 58 -106 72 -125 64 -89 66 -145 7 -153 -17 -2 -19 -16 -2 -22
30 -11 54 -36 54 -56 0 -16 5 -19 28 -13 20 4 36 0 54 -14 14 -11 29 -17 32
-13 4 4 6 2 5 -3 -4 -11 44 -90 61 -100 20 -12 11 -71 -15 -95 -14 -13 -30
-40 -36 -61 -7 -21 -22 -42 -36 -50 -23 -12 -27 -10 -73 42 -31 34 -50 65 -52
84 -3 25 -7 30 -30 30 -15 -1 -25 1 -24 3 2 2 -7 15 -20 29 -13 14 -24 31 -24
38 0 6 -11 22 -25 35 -14 13 -25 28 -25 32 0 5 -11 24 -24 41 -32 42 -42 96
-23 121 14 19 15 19 68 -6 30 -14 56 -24 58 -22 9 8 -20 29 -87 64 l-67 35 0
77 c0 42 -3 80 -7 84 -9 8 -11 -15 -8 -90 1 -29 -2 -46 -8 -42 -5 3 -15 0 -21
-8 -22 -27 -49 -5 -90 74 -23 43 -41 87 -41 98 0 12 -8 23 -18 26 -16 6 -36
36 -60 97 -16 41 18 68 89 71 l54 2 -51 3 c-67 5 -93 33 -128 138 -15 44 -32
90 -38 103 -6 12 -12 52 -12 89 l-1 67 65 19 c36 11 72 23 80 28 8 4 16 8 17
8 1 1 13 -4 27 -10z m394 -12 c11 -11 23 -38 27 -60 12 -78 85 -248 122 -286
14 -14 15 -13 10 4 -3 11 -9 32 -13 48 -3 15 -9 27 -13 27 -9 0 -27 53 -36
105 -4 22 -10 44 -13 50 -20 31 -30 80 -20 98 10 19 18 20 127 14 178 -10 392
-55 506 -107 38 -17 90 -37 120 -46 20 -6 31 -17 33 -32 4 -27 -28 -102 -52
-121 -9 -8 -16 -20 -16 -28 0 -7 -11 -26 -25 -41 -14 -15 -25 -30 -25 -34 0
-10 -87 -137 -113 -166 -24 -26 -28 -25 -152 33 -49 24 -123 58 -163 75 -45
21 -82 46 -99 67 -29 37 -43 42 -39 16 5 -33 -26 -43 -115 -37 -46 3 -117 7
-157 8 -65 1 -75 4 -92 26 -11 14 -20 30 -20 36 0 6 -7 17 -15 24 -8 7 -15 21
-15 32 0 10 -4 16 -10 13 -6 -4 -10 9 -10 30 0 36 -20 121 -42 177 -16 42 -3
76 32 85 17 5 81 8 144 8 97 0 117 -3 134 -18z m1601 -35 c8 -10 43 -32 64
-38 9 -4 17 -10 17 -14 0 -4 24 -19 53 -35 108 -58 117 -86 45 -145 -24 -19
-63 -55 -88 -80 -69 -70 -113 -100 -147 -100 -17 0 -63 13 -102 29 -39 16 -71
26 -71 22 0 -3 -4 -1 -8 6 -4 7 -22 13 -39 15 -17 1 -30 5 -27 9 2 4 0 10 -6
14 -20 12 -9 50 32 110 23 33 47 65 53 71 5 6 24 28 40 49 82 106 85 108 134
101 25 -3 47 -9 50 -14z m1298 -164 c15 -6 31 -12 34 -12 16 -2 69 -50 69 -62
0 -8 14 -21 30 -29 17 -9 28 -20 25 -25 -3 -5 5 -12 19 -16 13 -3 27 -12 30
-21 3 -8 10 -11 16 -8 5 3 20 -4 32 -17 13 -13 51 -45 85 -71 69 -52 83 -63
142 -118 22 -22 36 -39 30 -39 -7 0 0 -9 14 -20 14 -11 30 -20 36 -20 6 0 11
-8 11 -18 0 -10 9 -25 20 -35 11 -9 20 -21 20 -26 0 -13 -59 -61 -87 -72 -36
-13 -97 23 -190 111 -43 41 -94 85 -113 98 -35 24 -94 77 -133 121 -12 13 -42
37 -66 53 -24 17 -55 43 -70 57 -14 15 -42 38 -61 51 -43 30 -59 50 -60 72 0
20 44 52 62 45 7 -2 22 -1 33 4 28 11 40 11 72 -3z m-1817 -76 c133 -67 139
-76 89 -149 -18 -27 -36 -50 -39 -53 -12 -9 -152 -204 -166 -232 -8 -16 -21
-28 -28 -28 -8 0 -16 -5 -18 -12 -3 -7 -29 3 -74 27 -38 22 -91 50 -119 64
-27 14 -51 34 -53 43 -3 17 60 125 184 316 46 70 58 82 82 82 15 -1 79 -27
142 -58z m863 18 c14 -11 32 -20 40 -20 8 0 34 -16 57 -35 23 -19 49 -35 57
-35 8 0 28 -11 45 -25 16 -14 36 -25 44 -25 8 0 14 -4 14 -10 0 -5 7 -10 15
-10 8 0 15 -3 15 -7 0 -5 13 -17 29 -27 51 -35 55 -51 17 -88 -39 -39 -95 -89
-156 -138 -24 -19 -53 -45 -66 -57 -13 -13 -26 -23 -29 -23 -4 0 -12 -6 -20
-12 -7 -7 -32 -29 -56 -48 -23 -19 -74 -62 -113 -96 -39 -33 -84 -71 -100 -85
-59 -48 -131 -114 -139 -126 -4 -7 -28 -18 -53 -24 -28 -7 -43 -16 -40 -24 6
-17 -22 -56 -69 -96 -22 -18 -89 -84 -150 -146 -60 -62 -118 -113 -127 -113
-23 0 -68 21 -68 32 0 4 -5 8 -11 8 -6 0 -23 12 -39 28 -15 15 -49 45 -76 67
-27 22 -70 60 -96 84 -45 41 -114 75 -131 64 -5 -3 1 -14 12 -24 26 -24 27
-59 3 -85 -10 -10 -26 -33 -37 -51 -31 -50 -98 -147 -105 -153 -4 -3 -24 -30
-45 -60 -21 -30 -46 -62 -54 -70 -9 -8 -24 -27 -34 -42 -25 -40 -56 -36 -90
12 -21 29 -26 46 -21 63 6 21 41 76 54 87 19 15 68 99 62 105 -4 3 -2 5 4 3
15 -4 74 57 74 77 0 8 5 15 10 15 6 0 10 6 10 14 0 7 11 25 25 40 14 16 33 39
42 52 10 16 25 24 45 24 25 0 29 3 23 18 -20 45 -16 67 20 105 19 21 35 42 35
46 0 4 10 16 21 27 12 10 35 39 52 64 53 77 101 130 118 130 33 0 104 -46 107
-70 2 -12 0 -25 -5 -29 -4 -3 -35 -39 -67 -79 -64 -79 -73 -86 -128 -96 -41
-7 -48 -19 -40 -62 13 -70 64 -49 146 59 61 83 148 167 171 167 13 0 54 -20
91 -45 36 -25 68 -45 70 -45 2 0 32 -20 67 -45 36 -25 79 -48 97 -51 29 -6 31
-5 20 12 -12 19 -133 104 -148 104 -5 0 -17 9 -27 20 -10 11 -24 20 -31 20 -7
0 -19 6 -26 13 -7 7 -25 20 -39 29 -47 30 -43 51 20 115 144 145 314 298 343
308 19 6 32 18 34 30 3 20 23 40 155 157 103 92 111 98 129 98 10 0 29 -9 43
-20z m-3042 -37 c-9 -15 -10 -12 -10 17 0 29 1 32 10 18 7 -12 7 -24 0 -35z
m3847 -50 c30 -27 79 -67 109 -89 30 -23 93 -77 140 -120 47 -44 96 -86 107
-94 12 -8 26 -19 33 -25 6 -5 47 -39 91 -75 44 -36 84 -72 90 -81 16 -25 -7
-61 -59 -89 -25 -14 -55 -35 -67 -47 -12 -13 -28 -23 -35 -23 -8 0 -22 -9 -32
-20 -10 -11 -31 -20 -46 -20 -27 0 -59 22 -59 41 0 5 -5 9 -10 9 -12 0 -33 16
-53 39 -44 52 -180 181 -190 181 -2 0 -24 18 -48 40 -24 21 -93 79 -154 128
-60 49 -111 96 -113 105 -4 19 32 54 140 137 22 17 83 48 97 50 2 0 29 -21 59
-47z m-1396 -60 c21 -9 38 -20 38 -25 0 -4 9 -8 19 -8 11 0 23 -5 26 -11 4 -5
18 -14 31 -19 14 -6 24 -18 24 -29 0 -22 -341 -367 -373 -377 -12 -4 -28 3
-46 20 -15 14 -33 26 -40 26 -14 0 -61 45 -61 59 0 5 15 24 33 43 19 18 55 65
82 103 79 114 157 219 169 227 18 13 57 9 98 -9z m-1322 -43 c0 -7 13 -10 33
-9 38 3 122 -20 237 -67 47 -20 108 -43 135 -52 28 -9 52 -19 55 -23 3 -3 16
-10 30 -14 68 -21 66 -46 -15 -168 -36 -54 -65 -101 -65 -105 0 -13 -57 -72
-69 -72 -6 0 -16 -12 -21 -26 -6 -14 -21 -40 -35 -58 -14 -18 -25 -36 -25 -39
0 -17 -34 -44 -49 -40 -10 2 -25 20 -36 39 -10 19 -24 34 -31 34 -21 0 -103
87 -110 116 -5 21 -2 31 15 45 l21 17 -26 21 c-15 12 -30 21 -35 21 -5 0 -18
19 -30 43 -12 23 -25 44 -29 47 -12 9 -70 117 -70 131 0 8 -14 34 -30 59 -36
54 -39 87 -8 99 36 13 158 14 158 1z m2506 -166 c60 -47 125 -97 144 -112 19
-15 58 -48 85 -74 28 -26 60 -55 72 -65 12 -10 30 -26 41 -35 12 -9 32 -24 46
-33 14 -10 23 -21 20 -26 -3 -5 -1 -9 4 -9 16 0 72 -63 72 -81 0 -20 -42 -63
-95 -97 -51 -32 -163 -121 -195 -155 -14 -15 -29 -27 -34 -27 -4 0 -42 -33
-83 -72 -41 -40 -81 -77 -90 -82 -8 -4 -23 -16 -32 -25 -9 -9 -38 -33 -64 -55
-49 -40 -56 -56 -33 -75 12 -10 32 3 107 66 51 43 131 115 178 160 74 70 124
111 283 233 38 29 55 25 103 -22 23 -24 66 -63 95 -88 28 -25 64 -58 78 -75
15 -16 44 -47 65 -69 20 -22 37 -44 37 -48 0 -4 6 -8 14 -8 15 0 26 -21 26
-51 0 -10 -14 -31 -31 -46 -17 -16 -48 -44 -69 -63 -56 -51 -82 -73 -142 -116
-29 -21 -56 -43 -60 -49 -14 -19 -8 -35 12 -35 36 0 65 23 264 205 50 46 116
62 116 28 0 -10 13 -33 28 -50 15 -18 43 -52 62 -75 33 -40 74 -85 219 -238
40 -43 61 -73 61 -90 1 -35 -163 -189 -202 -190 -14 0 -28 5 -30 11 -2 6 -13
9 -23 7 -18 -4 -17 -6 6 -16 41 -17 28 -58 -35 -110 -29 -24 -63 -53 -77 -65
-81 -75 -162 -137 -178 -137 -19 0 -50 21 -105 72 -17 16 -44 36 -60 45 -42
22 -146 112 -181 155 -28 35 -58 48 -69 30 -11 -19 8 -49 52 -82 26 -19 64
-50 85 -69 20 -19 48 -42 61 -50 67 -45 84 -58 124 -89 72 -58 64 -70 -138
-207 -69 -46 -134 -93 -145 -103 -39 -35 -70 -52 -97 -52 -16 0 -28 4 -28 9 0
9 -26 36 -91 93 -46 41 -79 68 -83 68 -5 0 -104 89 -136 121 -32 33 -70 47
-70 25 0 -17 43 -62 105 -113 22 -17 51 -41 65 -52 90 -76 126 -104 147 -114
13 -5 23 -14 23 -19 0 -4 7 -8 15 -8 9 0 15 -9 15 -25 0 -30 -65 -95 -121
-120 -21 -10 -39 -22 -39 -27 0 -4 -5 -8 -12 -8 -6 0 -38 -20 -69 -45 -32 -25
-61 -45 -66 -45 -4 0 -20 -11 -34 -24 -14 -13 -35 -27 -47 -30 -12 -4 -74 -42
-139 -85 -126 -83 -205 -118 -244 -108 -13 4 -37 18 -54 33 -48 41 -192 173
-264 242 -36 34 -69 62 -73 62 -4 0 -8 6 -8 14 0 8 -7 16 -15 20 -24 9 -18 43
12 71 15 14 32 25 36 25 5 0 27 16 50 35 22 19 44 35 49 35 8 0 67 40 177 118
63 45 149 104 175 120 50 30 141 110 144 127 4 15 -12 34 -29 35 -3 0 -28 -20
-56 -45 -27 -25 -64 -55 -81 -67 -17 -13 -84 -62 -149 -109 -106 -77 -221
-155 -248 -169 -5 -3 -36 -22 -68 -43 -96 -62 -99 -61 -199 36 -49 47 -88 88
-88 91 0 3 -43 49 -95 102 -111 114 -116 130 -52 171 23 15 44 30 47 33 3 3
34 26 70 50 110 74 163 112 206 147 23 18 46 33 52 33 6 0 12 3 14 8 2 4 23
23 48 42 25 19 47 37 50 41 14 18 126 89 140 89 27 0 111 -60 164 -117 50 -55
70 -64 80 -37 6 16 -21 47 -64 74 -13 8 -56 45 -94 82 -72 68 -94 79 -118 55
-52 -50 -187 -154 -323 -249 -55 -38 -111 -79 -125 -91 -61 -53 -216 -147
-243 -147 -7 0 -35 24 -61 53 -26 28 -70 77 -97 107 -28 30 -83 93 -122 140
-40 47 -75 87 -79 88 -5 2 -8 17 -8 33 0 24 19 48 112 137 142 136 176 171
266 265 46 48 82 77 95 77 23 0 97 -47 97 -61 0 -5 6 -9 14 -9 8 0 16 -4 18
-8 2 -5 30 -29 63 -54 33 -26 74 -61 90 -78 53 -57 106 -91 121 -79 11 9 6 19
-29 53 -24 22 -58 52 -76 66 -18 14 -53 41 -76 60 -24 19 -73 57 -109 84 -51
37 -66 54 -66 74 0 19 38 63 159 183 96 96 167 159 179 159 24 0 76 -35 139
-94 26 -25 51 -46 54 -46 3 0 30 -24 60 -52 30 -29 71 -66 90 -83 54 -45 136
-115 191 -162 49 -43 88 -56 88 -29 0 8 -29 37 -64 63 -83 63 -167 134 -236
203 -31 30 -98 89 -150 130 -150 118 -148 109 -44 195 26 22 71 62 99 89 27
26 66 60 85 74 19 14 40 31 45 37 6 6 32 28 60 50 27 22 56 47 65 55 109 101
253 218 305 248 39 22 63 12 171 -74z m-1806 -89 c25 -13 64 -32 86 -43 48
-23 84 -56 84 -75 0 -8 -9 -24 -20 -37 -11 -12 -34 -44 -51 -71 -17 -27 -34
-49 -38 -49 -3 0 -15 -16 -25 -35 -11 -19 -23 -35 -28 -35 -4 0 -8 -5 -8 -12
0 -16 -71 -88 -86 -88 -7 0 -44 16 -83 35 -38 19 -74 35 -80 35 -6 0 -11 4
-11 10 0 5 -11 12 -25 16 -39 10 -37 52 4 104 15 19 35 49 44 66 9 17 23 37
33 45 9 8 23 28 30 44 7 17 26 49 43 73 37 50 62 53 131 17z m-1220 -104 c0 9
3 10 8 4 8 -12 15 -12 55 -1 42 12 55 -3 101 -118 9 -21 16 -53 17 -70 1 -30
1 -30 9 -6 5 17 8 19 9 8 1 -10 7 -18 14 -18 13 0 111 -124 123 -155 4 -8 1
-22 -6 -30 -10 -12 -8 -16 14 -25 15 -5 34 -23 44 -39 9 -16 30 -37 47 -47 83
-47 103 -91 64 -146 -23 -32 -23 -33 8 -42 17 -5 29 -1 45 17 21 22 60 28 77
11 10 -10 6 -128 -6 -159 -14 -36 -24 -68 -25 -75 -1 -12 -38 -79 -47 -84 -27
-17 -52 18 -67 99 -9 45 -9 59 1 128 10 61 -2 61 -56 -3 -23 -27 -46 -50 -50
-50 -12 0 -59 46 -59 58 0 5 -6 12 -14 15 -8 3 -20 18 -28 34 -51 99 -74 137
-100 165 -67 72 -76 111 -30 130 15 7 28 13 29 13 2 1 -1 15 -6 32 -6 21 -5
39 3 55 21 40 26 58 16 58 -6 0 -10 -8 -11 -17 0 -12 -2 -13 -6 -5 -3 8 -16
-1 -35 -27 -16 -23 -36 -41 -43 -41 -18 0 -109 105 -150 174 -45 75 -45 97 0
122 22 12 33 24 30 33 -4 11 -3 12 10 1 12 -10 15 -10 15 1z m4106 -108 c41
-41 74 -80 74 -87 0 -6 12 -20 26 -31 14 -11 47 -41 74 -67 45 -43 49 -50 39
-72 -12 -26 -47 -40 -73 -30 -12 5 -16 -1 -16 -23 0 -38 -26 -73 -54 -73 -13
0 -36 11 -52 25 -16 14 -32 25 -36 25 -15 0 -8 -26 12 -43 38 -32 29 -46 -107
-170 -52 -47 -83 -58 -103 -34 -5 6 -26 32 -46 57 -38 48 -173 190 -181 190
-2 0 -26 18 -53 41 -76 64 -73 82 20 138 30 19 72 47 93 64 32 25 44 28 76 23
36 -5 38 -5 33 19 -6 35 21 58 69 58 31 0 39 3 39 18 0 25 49 61 73 53 10 -3
53 -40 93 -81z m-3153 -166 c15 -7 27 -18 27 -24 0 -7 9 -13 20 -13 11 0 20
-3 20 -7 0 -5 14 -17 31 -28 17 -11 34 -27 39 -36 12 -21 -15 -95 -47 -130
-13 -14 -23 -30 -23 -37 0 -7 -4 -12 -10 -12 -5 0 -10 -7 -10 -16 0 -18 -45
-83 -96 -139 -20 -22 -43 -50 -51 -62 -26 -39 -55 -29 -99 34 -21 31 -56 74
-76 96 -47 50 -49 84 -8 130 17 19 30 38 30 42 0 11 100 143 143 189 38 40 44
40 110 13z m3523 -179 c38 -57 46 -66 67 -86 9 -9 17 -23 17 -31 0 -8 3 -11 6
-8 9 8 37 -24 79 -88 18 -27 52 -70 75 -95 55 -59 62 -78 42 -112 -19 -33 -23
-33 -63 -12 -37 19 -47 12 -30 -19 7 -13 11 -39 9 -58 -3 -30 -6 -34 -31 -32
-20 1 -46 21 -92 70 -36 37 -65 74 -65 81 0 7 -22 35 -50 63 -27 27 -50 56
-50 64 0 8 -3 15 -7 15 -5 0 -30 28 -58 61 -27 34 -58 71 -68 82 -10 12 -17
33 -15 47 3 22 9 26 53 31 28 3 43 7 35 8 -24 3 28 41 56 41 13 0 24 5 24 10
0 26 40 6 66 -32z m-3075 -139 c35 -28 72 -57 81 -64 9 -8 29 -22 45 -32 51
-33 73 -56 73 -78 0 -13 -29 -54 -72 -101 -118 -129 -342 -344 -360 -344 -9 0
-30 18 -47 39 -17 21 -41 41 -54 45 -14 3 -23 13 -24 28 -1 12 -8 25 -14 27
-17 5 -59 48 -59 59 0 12 78 129 106 161 12 13 28 35 36 50 7 14 22 36 33 48
27 29 35 40 70 93 56 84 88 120 108 120 8 0 43 -23 78 -51z m2819 9 c0 -14 62
-68 72 -62 4 3 8 -4 8 -16 0 -12 24 -43 60 -77 33 -31 60 -60 60 -66 0 -5 16
-25 35 -44 19 -19 35 -37 35 -40 0 -11 64 -78 73 -75 5 1 6 -1 3 -6 -3 -5 2
-21 10 -36 7 -16 14 -36 14 -46 0 -23 -55 -70 -81 -70 -11 0 -19 -7 -19 -16 0
-22 -65 -82 -97 -90 -22 -6 -32 0 -67 39 -60 66 -86 97 -86 101 0 2 -24 28
-52 58 -29 31 -80 85 -113 122 -33 36 -67 68 -76 71 -9 3 -22 19 -29 36 -17
40 -2 71 49 103 21 14 41 29 42 33 2 4 30 32 61 61 50 45 61 51 78 42 11 -6
20 -16 20 -22z m-3480 -215 c17 -30 20 -45 15 -85 -7 -51 -1 -58 35 -36 23 14
46 4 64 -27 6 -10 19 -27 29 -37 9 -10 17 -28 17 -41 0 -25 -34 -102 -49 -112
-13 -8 -41 -64 -41 -84 -1 -9 -11 -29 -24 -45 -19 -23 -30 -28 -55 -24 -28 4
-31 2 -25 -16 4 -12 10 -23 14 -26 36 -25 33 -117 -6 -156 -14 -13 -24 -35
-24 -51 0 -28 0 -28 17 7 10 19 23 39 30 43 7 4 13 18 13 31 0 18 7 25 27 29
20 4 32 -2 55 -26 37 -41 42 -60 28 -103 -15 -44 -7 -54 23 -26 13 12 30 22
38 22 19 0 113 -90 133 -128 9 -17 24 -37 34 -44 10 -7 29 -27 42 -45 13 -18
28 -29 34 -26 6 3 8 3 4 -2 -4 -4 6 -27 22 -51 45 -65 41 -87 -25 -123 -22
-12 -55 -33 -74 -46 -47 -34 -63 -32 -104 18 -19 23 -53 62 -77 87 -98 105
-122 142 -116 178 3 19 11 39 19 46 16 12 40 76 29 76 -17 -1 -30 -18 -44 -60
-11 -36 -20 -47 -45 -54 -30 -9 -31 -11 -36 -83 -3 -41 -10 -80 -15 -86 -5 -7
-12 -25 -15 -42 -3 -16 -17 -60 -31 -97 -14 -37 -28 -98 -32 -135 -10 -104
-32 -119 -74 -52 -22 36 -25 38 -28 19 -2 -12 4 -37 13 -57 30 -62 -1 -130
-76 -168 -19 -10 -38 -24 -42 -32 -5 -7 -12 -11 -17 -8 -5 3 -18 1 -29 -4 -14
-8 -22 -6 -36 9 -17 18 -17 25 -5 78 8 31 12 64 11 72 -3 17 29 131 41 145 4
5 8 22 8 37 0 18 6 31 18 35 25 10 41 34 42 63 0 14 6 37 14 51 19 37 29 82
16 74 -5 -3 -10 -13 -10 -21 0 -18 -48 -64 -66 -64 -39 0 -76 88 -55 128 14
26 15 74 2 52 -6 -8 -7 -18 -4 -24 3 -5 1 -6 -6 -2 -6 4 -14 0 -17 -8 -7 -18
-54 -22 -54 -5 0 6 -7 17 -15 25 -9 9 -15 34 -15 59 0 24 -6 48 -12 52 -21 13
-51 77 -39 81 6 2 11 10 11 18 0 16 46 37 62 28 6 -4 7 10 3 37 -6 41 -4 47
34 89 22 25 43 56 46 69 6 23 41 60 59 61 13 0 35 -33 36 -54 0 -19 -43 -66
-61 -66 -5 0 -9 -18 -9 -40 0 -38 1 -39 21 -28 11 7 23 24 25 38 11 50 52 78
88 58 21 -12 21 -66 0 -89 -19 -21 -10 -46 11 -29 7 6 26 9 42 8 27 -2 32 -7
43 -50 11 -43 10 -52 -9 -92 -12 -24 -21 -48 -20 -52 1 -5 -1 -17 -6 -27 -4
-11 -3 -23 4 -30 8 -8 11 -7 11 6 0 10 5 23 10 30 6 7 19 24 31 40 24 31 46
34 66 10 13 -16 14 -16 7 7 -4 14 -8 48 -8 76 -1 46 -3 51 -21 48 -11 -2 -28
-1 -38 2 -22 7 -47 66 -47 110 0 31 -3 34 -29 34 -59 0 -64 43 -16 141 14 29
25 58 25 65 0 6 8 22 18 34 14 17 22 20 42 12 24 -9 25 -8 27 33 1 39 0 42
-22 37 -17 -3 -25 2 -31 20 -10 27 -12 128 -3 122 6 -4 33 52 45 96 4 14 15
44 25 68 23 54 49 56 79 5z m4129 -164 c7 -17 21 -33 29 -37 15 -5 34 -24 72
-69 5 -7 10 -16 10 -21 0 -4 8 -17 18 -28 10 -10 21 -26 25 -34 25 -52 46 -75
71 -78 25 -3 27 -7 25 -40 -2 -25 1 -36 9 -34 7 1 12 -3 12 -9 0 -6 6 -17 13
-24 27 -31 36 -43 53 -76 10 -19 19 -40 20 -46 3 -16 -52 -43 -63 -32 -5 5
-14 -6 -22 -26 -18 -49 -43 -45 -101 16 -27 27 -51 55 -54 62 -2 7 -5 4 -5 -6
-1 -11 7 -31 18 -45 10 -15 28 -44 40 -65 19 -34 20 -42 9 -65 -11 -21 -20
-27 -47 -27 -29 0 -39 7 -67 45 -18 25 -33 49 -33 53 -1 12 -74 107 -115 150
-20 21 -36 44 -36 51 0 7 -20 31 -45 54 -25 23 -45 37 -45 31 0 -12 13 -29 63
-81 20 -21 37 -43 37 -49 0 -13 21 -49 48 -78 12 -14 22 -29 22 -33 0 -8 30
-47 68 -85 12 -13 22 -28 22 -34 0 -5 7 -12 15 -15 9 -4 15 -19 15 -37 0 -26
-12 -43 -62 -91 -85 -80 -156 -136 -175 -136 -9 0 -46 33 -82 73 -120 132
-320 327 -336 327 -10 0 -30 23 -38 44 -6 15 16 42 105 133 129 130 166 157
208 151 28 -4 30 -2 30 27 0 17 5 36 12 43 15 15 64 16 73 2 15 -24 22 -7 12
26 -11 35 -10 37 33 77 48 45 98 76 115 70 6 -2 16 -17 24 -34z m-4407 -35
c16 -10 7 -69 -16 -109 -30 -53 -66 -56 -79 -6 -4 19 -5 37 0 40 14 11 33 50
33 70 0 16 5 19 27 15 15 -3 30 -7 35 -10z m551 -106 c20 -18 37 -39 37 -46 0
-7 18 -30 39 -51 58 -57 54 -66 -82 -186 -31 -27 -57 -55 -57 -62 0 -6 -9 -15
-21 -18 -16 -6 -31 4 -69 47 -27 29 -52 61 -55 71 -7 19 20 102 42 128 7 8 18
31 25 50 17 51 57 99 82 99 12 0 38 -15 59 -32z m-466 -72 c-10 -14 -17 -31
-17 -37 0 -20 -51 -80 -62 -73 -19 12 9 116 45 162 8 10 14 9 30 -7 19 -19 19
-21 4 -45z m656 -168 c40 -41 117 -135 117 -143 0 -3 15 -22 33 -42 73 -83
152 -168 160 -174 16 -11 10 -59 -9 -75 -11 -8 -35 -22 -54 -31 -19 -8 -56
-30 -81 -49 -65 -48 -87 -45 -143 19 -25 28 -54 61 -65 72 -10 11 -31 38 -46
60 -16 22 -47 58 -69 80 -53 53 -86 96 -86 113 0 7 16 30 36 50 20 20 55 58
77 85 22 26 47 47 54 47 7 0 13 5 13 10 0 20 32 9 63 -22z m3045 -138 c-2 -5
52 -65 119 -132 215 -216 292 -302 293 -325 0 -23 -9 -33 -62 -73 -27 -21
-111 -93 -128 -110 -30 -31 -76 -60 -97 -60 -15 0 -40 15 -66 41 -23 23 -62
55 -87 72 -24 17 -51 37 -60 43 -8 7 -53 41 -100 75 -47 34 -87 65 -90 69 -3
3 -22 17 -43 29 -21 13 -43 35 -48 50 -9 23 -6 30 28 61 21 19 57 49 78 65 22
17 75 62 119 102 44 40 93 79 110 87 37 19 37 18 34 6z m1044 -38 c-9 -6 -6
-12 12 -20 14 -6 32 -25 41 -42 8 -16 20 -30 25 -30 6 0 10 -7 10 -16 0 -8 6
-21 13 -29 6 -7 20 -24 31 -39 10 -14 22 -23 27 -20 5 3 9 -2 9 -11 0 -9 4
-14 9 -11 5 3 12 -10 15 -29 4 -21 13 -35 21 -35 8 0 15 -5 15 -11 0 -6 11
-25 24 -42 13 -18 31 -49 41 -69 9 -21 21 -38 26 -38 5 0 9 -5 9 -10 0 -6 11
-23 25 -38 14 -15 25 -33 25 -40 0 -7 6 -15 14 -18 8 -3 21 -22 29 -42 8 -20
27 -48 41 -61 14 -14 26 -30 26 -36 0 -6 9 -21 20 -33 12 -12 19 -22 16 -22
-3 0 11 -16 30 -36 22 -24 34 -47 34 -65 0 -21 4 -27 15 -23 9 4 16 -3 21 -22
4 -15 18 -38 32 -51 14 -13 27 -36 28 -51 2 -14 11 -32 20 -39 10 -7 15 -13
11 -13 -4 0 1 -10 13 -22 11 -12 20 -28 20 -35 0 -7 4 -13 9 -13 5 0 12 -16
15 -35 4 -19 10 -35 14 -35 4 0 20 -36 36 -81 16 -44 35 -83 43 -86 8 -3 11
-13 8 -24 -4 -11 -2 -19 3 -19 13 0 25 -39 23 -74 -2 -17 5 -35 17 -47 15 -13
22 -37 27 -86 3 -37 10 -79 15 -93 16 -46 30 -154 36 -287 6 -115 5 -134 -9
-148 -15 -15 -17 -15 -17 -1 0 25 -1 30 -13 51 -7 11 -17 43 -23 70 -10 42
-12 16 -10 -168 1 -208 0 -219 -19 -233 -19 -14 -20 -13 -26 28 -4 24 -8 81
-9 128 -2 47 -9 110 -16 140 -7 30 -13 73 -14 96 0 22 -4 44 -9 50 -5 5 -11
29 -14 54 -9 85 -50 217 -102 335 -36 81 -80 165 -87 165 -5 0 -8 7 -8 15 0
25 -23 65 -37 65 -16 0 -17 -11 -2 -44 7 -14 16 -23 20 -20 5 3 9 -9 9 -25 0
-17 3 -31 8 -31 4 0 14 -17 24 -38 9 -20 24 -54 33 -75 9 -21 14 -49 11 -61
-4 -15 3 -34 19 -56 14 -19 25 -42 25 -52 0 -10 4 -18 9 -18 5 0 12 -21 16
-47 4 -26 13 -59 20 -73 7 -14 21 -67 30 -119 29 -158 10 -531 -27 -531 -5 0
-8 -9 -8 -19 0 -37 -71 -140 -92 -133 -5 1 -8 -8 -9 -20 -1 -22 -1 -22 -8 2
-5 14 -9 79 -11 145 -5 256 -9 314 -31 483 -8 57 -8 87 -1 94 7 7 6 19 -3 36
-18 36 -33 88 -41 140 -4 23 -10 42 -15 42 -5 0 -9 7 -9 15 0 8 -4 15 -8 15
-5 0 -5 -21 1 -47 5 -27 11 -76 14 -111 4 -58 3 -63 -19 -71 -14 -6 -17 -10
-8 -11 10 -1 9 -4 -5 -10 -20 -8 -20 -9 1 -9 40 -2 54 -32 64 -142 10 -103 7
-139 -11 -139 -18 0 -9 -15 22 -35 l31 -20 -6 -85 c-9 -151 -26 -254 -50 -305
-23 -50 -120 -155 -142 -155 -7 0 -14 -6 -17 -13 -2 -7 -16 -13 -30 -15 -23
-1 -25 1 -21 31 3 17 7 38 10 46 10 30 4 337 -8 389 -12 54 -11 55 16 78 15
13 38 24 52 24 13 0 24 5 24 10 0 6 18 10 40 10 22 0 40 5 40 10 0 10 -99 4
-130 -7 -27 -11 -35 -10 -57 11 -16 13 -23 31 -23 55 0 19 -4 48 -9 65 -17 57
-32 161 -26 178 4 10 16 20 27 24 22 7 15 19 -24 38 -14 7 -28 27 -35 51 -7
22 -22 73 -34 114 l-23 74 34 28 c24 20 29 30 19 33 -65 24 -69 26 -69 50 0
14 5 28 10 31 6 4 8 11 4 16 -3 5 -9 7 -14 4 -15 -9 -48 30 -66 80 -9 28 -32
82 -51 121 -32 69 -41 117 -25 140 4 6 28 27 53 46 32 24 44 39 39 48 -10 16
-60 5 -60 -13 0 -26 -58 -61 -79 -48 -16 10 -101 141 -101 157 0 7 -10 21 -23
31 -29 23 -67 85 -67 110 0 10 15 34 34 53 19 19 32 38 29 42 -2 5 1 8 6 8 6
0 19 7 29 15 86 76 117 82 163 33 16 -18 29 -36 29 -40 0 -11 53 -92 63 -96 4
-2 7 -11 7 -20 0 -8 3 -12 7 -9 11 11 -19 89 -54 142 -18 27 -33 63 -33 79 0
26 -41 76 -61 76 -4 0 -9 10 -13 23 -3 12 -26 44 -50 71 -25 27 -47 51 -48 55
-19 41 -57 92 -70 97 -10 3 -18 10 -18 15 0 5 -7 9 -16 9 -11 0 -4 -15 25 -49
23 -27 41 -53 41 -59 0 -5 7 -15 16 -23 9 -7 25 -32 35 -55 11 -23 31 -52 45
-64 15 -15 24 -34 24 -54 0 -39 -8 -51 -39 -61 -13 -4 -43 -27 -67 -51 -23
-24 -46 -44 -51 -44 -4 0 -19 -9 -33 -20 -14 -11 -32 -20 -41 -20 -15 0 -159
180 -159 199 0 5 -18 28 -40 51 -22 23 -40 46 -40 50 0 4 -11 19 -25 34 -38
41 -32 68 23 111 26 21 61 52 78 69 41 42 86 76 100 76 6 0 30 -18 52 -41 23
-22 42 -36 42 -30 0 17 -33 81 -42 81 -10 0 1 50 15 68 19 24 46 11 91 -42 25
-29 46 -57 46 -62 0 -5 14 -22 30 -37 17 -16 30 -35 30 -42 0 -7 14 -27 30
-43 17 -17 30 -35 30 -41 0 -6 5 -11 10 -11 6 0 10 -4 10 -10 0 -5 16 -32 35
-59 19 -26 35 -57 35 -68 0 -18 9 -33 53 -88 23 -30 86 -136 92 -156 4 -13 18
-37 29 -54 12 -16 28 -42 36 -57 12 -25 11 -30 -5 -48 -13 -14 -29 -20 -49
-18 -26 2 -35 11 -55 51 -13 27 -25 46 -28 43 -9 -8 7 -76 17 -76 20 0 9 -56
-16 -83 -30 -33 -28 -41 7 -23 42 21 63 6 100 -74 12 -25 28 -50 37 -56 9 -7
12 -16 7 -25 -6 -10 -5 -11 4 -3 13 12 -10 90 -27 87 -11 -3 -27 59 -24 97 1
13 12 35 25 48 21 20 28 22 46 13 11 -7 21 -19 21 -27 0 -9 17 -53 39 -99 26
-55 37 -91 34 -109 -5 -24 -2 -26 26 -26 27 0 34 -6 53 -47 19 -40 24 -44 26
-25 2 13 -1 28 -6 35 -5 7 -23 49 -41 93 -18 45 -41 91 -52 102 -10 12 -19 25
-19 30 0 5 -11 25 -23 44 -13 19 -27 46 -30 60 -4 15 -13 33 -20 40 -7 7 -18
28 -25 45 -6 18 -22 48 -36 66 -15 19 -26 39 -26 45 0 7 -4 12 -8 12 -5 0 -21
24 -35 54 -15 30 -32 58 -37 61 -6 3 -10 14 -10 23 0 9 -14 31 -30 49 -17 18
-30 35 -30 38 0 6 -12 22 -45 58 -11 12 -28 33 -38 47 -35 50 -87 130 -87 134
0 3 -9 15 -19 28 -57 67 -78 96 -91 122 -14 26 -13 29 10 48 13 11 32 17 42
15 10 -3 18 -1 18 5 0 12 18 30 45 46 22 13 47 16 27 4z m-5172 -262 c0 -5 9
-19 20 -30 11 -11 20 -31 20 -45 0 -22 2 -24 26 -15 50 19 95 -28 87 -90 -5
-38 -5 -38 27 -37 28 2 34 -2 40 -24 4 -15 4 -46 -1 -70 -30 -151 -41 -223
-44 -294 -4 -98 -12 -119 -64 -173 -41 -42 -57 -70 -23 -39 22 20 46 22 61 4
14 -18 -2 -331 -20 -369 -12 -28 -57 -48 -106 -48 -12 0 -25 -4 -28 -10 -3 -5
-21 -10 -40 -10 -26 0 -35 5 -41 23 -10 31 -6 111 6 115 6 2 10 27 9 55 l-1
52 -10 -45 c-5 -25 -14 -49 -19 -55 -5 -5 -9 -26 -9 -46 0 -53 -34 -105 -77
-121 l-36 -13 29 -5 c43 -8 52 -57 31 -158 -9 -42 -17 -93 -17 -113 0 -19 -7
-45 -17 -58 -14 -21 -15 -30 -3 -75 7 -28 15 -57 18 -65 3 -9 1 -12 -6 -7 -15
9 -20 -17 -25 -120 -3 -44 -10 -97 -18 -117 -10 -30 -10 -41 1 -64 9 -19 14
-85 16 -208 2 -139 6 -187 18 -210 9 -17 16 -37 16 -45 0 -18 22 -82 55 -161
27 -63 35 -128 12 -98 -7 9 -22 19 -35 23 -36 12 -136 119 -173 188 -42 78
-61 128 -54 146 3 7 -4 30 -14 50 -10 20 -24 61 -30 90 -15 71 -15 269 0 274
17 6 14 57 -5 76 -8 9 -19 13 -22 9 -4 -4 -7 -98 -7 -210 1 -187 3 -209 27
-292 31 -107 50 -162 59 -171 10 -10 9 -54 -2 -54 -7 0 -80 75 -120 125 -13
16 -50 90 -87 172 -25 56 -42 152 -50 290 -6 107 -5 125 11 149 14 21 16 38
11 81 -4 37 -2 64 9 89 8 20 14 60 14 88 l-1 51 -10 -50 c-5 -27 -13 -54 -19
-59 -5 -6 -9 -27 -9 -49 0 -21 -4 -36 -9 -32 -5 3 -12 -21 -15 -52 -4 -32 -11
-96 -16 -143 -6 -51 -7 -141 -3 -223 5 -77 5 -141 2 -143 -20 -12 -50 73 -76
216 -16 89 -13 259 6 440 8 75 7 90 -11 132 -20 48 -19 118 2 118 6 0 10 7 10
15 0 8 4 15 9 15 4 0 11 24 14 53 4 45 30 112 48 127 4 3 18 28 33 55 15 28
33 61 41 75 8 14 22 41 30 60 21 46 52 102 64 116 5 7 15 30 21 52 6 23 21 54
34 69 13 16 25 42 27 58 2 17 9 37 17 47 7 9 17 38 21 65 4 29 12 47 19 45 7
-1 12 7 12 18 0 11 4 20 10 20 5 0 16 21 23 48 8 26 28 68 45 92 16 25 36 64
43 88 7 23 18 47 26 53 7 6 13 18 13 25 0 8 7 14 15 14 8 0 17 12 21 28 10 50
24 72 48 82 29 11 46 38 46 74 0 37 18 76 35 76 8 0 15 -4 15 -10z m1572 -130
c58 -60 111 -110 117 -110 6 0 11 -7 11 -15 0 -8 27 -42 61 -76 71 -71 73 -91
14 -126 -122 -72 -159 -70 -172 10 -3 21 -18 47 -34 63 -16 15 -29 33 -29 39
0 14 -38 50 -62 58 -9 3 -27 -2 -39 -12 -31 -25 -19 -50 48 -108 92 -79 103
-91 103 -116 0 -47 -19 -61 -242 -173 -66 -33 -90 -31 -119 9 -13 19 -45 58
-71 88 -161 186 -208 246 -208 272 0 20 40 53 81 66 20 6 44 19 55 29 10 9 38
26 62 36 23 11 42 23 42 28 0 5 10 13 23 18 12 5 65 36 117 69 52 33 104 60
116 60 14 1 56 -35 126 -109z m-879 60 c9 -11 28 -37 41 -59 14 -21 29 -41 34
-42 16 -7 82 -109 82 -128 0 -12 -18 -30 -47 -48 -158 -97 -207 -123 -236
-125 -30 -3 -32 -1 -31 27 1 17 9 62 18 100 10 39 20 88 23 110 3 22 12 49 19
60 8 11 14 32 14 48 0 35 27 77 49 77 9 0 24 -9 34 -20z m3086 -22 c31 -23 58
-44 61 -47 3 -4 23 -19 45 -36 22 -16 42 -32 45 -35 3 -4 32 -26 65 -50 33
-24 74 -56 90 -71 17 -15 50 -42 74 -60 24 -19 45 -42 47 -51 3 -20 -85 -96
-211 -183 -187 -129 -218 -142 -246 -109 -17 21 -121 98 -269 199 -167 113
-174 119 -187 135 -21 26 -14 48 24 77 21 15 65 49 97 76 33 26 66 47 73 47 7
0 13 4 13 8 0 4 15 16 33 27 17 10 34 21 37 25 14 16 127 90 139 90 8 0 39
-19 70 -42z m864 -130 c28 -40 74 -88 80 -82 3 3 4 -3 4 -13 -1 -10 4 -17 11
-15 8 1 11 -2 7 -7 -9 -15 25 -62 39 -54 6 3 8 3 4 -1 -7 -9 14 -52 49 -102
42 -59 45 -78 14 -113 -15 -17 -44 -37 -64 -46 -20 -8 -37 -20 -37 -25 0 -13
-60 -50 -82 -50 -9 0 -38 23 -65 52 -89 96 -106 110 -169 145 -32 18 -41 19
-41 8 0 -8 4 -15 9 -15 4 0 27 -19 50 -42 24 -24 59 -58 78 -75 99 -92 99
-117 0 -174 -15 -8 -34 -22 -43 -30 -27 -26 -57 -49 -64 -49 -3 0 -20 -10 -37
-23 -47 -34 -112 -67 -132 -67 -10 0 -32 5 -51 12 -37 14 -55 4 -28 -16 13 -9
16 -20 11 -37 -7 -26 -44 -51 -331 -222 -11 -6 -41 -24 -66 -39 -25 -16 -78
-44 -117 -63 -40 -19 -89 -45 -109 -58 -46 -29 -127 -57 -163 -57 -14 0 -77
25 -138 55 -62 30 -117 55 -122 55 -6 0 -10 4 -10 8 0 4 -22 21 -49 36 -66 39
-73 71 -22 94 147 65 465 236 581 311 47 30 100 63 117 73 59 32 116 21 219
-44 34 -21 66 -38 72 -38 6 0 12 -3 14 -7 7 -16 67 -43 82 -37 13 5 9 12 -21
35 -21 16 -42 29 -46 29 -4 0 -13 5 -20 10 -7 6 -45 27 -86 48 -101 51 -107
63 -54 110 38 34 133 104 237 175 22 16 54 40 70 54 31 27 69 33 114 18 24 -8
24 -8 8 23 -22 42 -20 57 8 80 22 17 56 46 186 161 42 37 81 40 103 9z m-3695
-185 c22 -27 69 -86 103 -132 34 -47 81 -105 104 -130 62 -68 70 -86 46 -110
-11 -11 -63 -40 -115 -65 -111 -52 -135 -61 -159 -57 -9 1 -34 -11 -54 -28
-21 -17 -47 -31 -59 -31 -12 0 -48 -13 -79 -30 -61 -32 -97 -38 -112 -17 -12
15 -30 84 -43 174 -6 37 -15 95 -21 128 -23 139 -24 131 10 164 17 17 66 47
108 67 43 21 80 40 83 44 3 4 24 17 47 29 23 11 44 25 48 31 15 24 54 9 93
-37z m2368 -65 c101 -83 147 -117 157 -118 9 0 164 -96 182 -112 7 -7 32 -24
54 -38 72 -43 63 -53 -177 -191 -15 -8 -49 -27 -77 -42 -27 -15 -72 -40 -100
-56 -27 -17 -62 -30 -76 -31 -16 0 -33 -9 -42 -22 -8 -13 -50 -41 -93 -63 -44
-22 -90 -47 -103 -57 -62 -46 -120 -31 -246 65 -38 29 -86 62 -105 73 -19 10
-43 29 -53 42 -10 12 -23 22 -29 22 -6 0 -28 15 -48 33 -21 17 -50 40 -64 50
-14 10 -26 24 -26 32 0 18 57 56 130 86 30 13 57 26 60 29 3 4 10 9 15 11 6 2
49 30 97 62 48 31 90 57 93 57 4 0 86 56 259 175 44 30 87 55 97 55 10 0 52
-28 95 -62z m-1404 3 c13 -5 52 -39 88 -76 36 -37 72 -75 81 -84 30 -31 171
-155 210 -185 42 -33 57 -62 41 -78 -6 -6 -34 -19 -63 -29 -29 -11 -55 -23
-58 -28 -13 -19 -78 -51 -106 -51 -36 0 -62 17 -131 85 -28 27 -79 76 -113
108 -33 32 -61 60 -61 63 0 2 -22 26 -48 52 -26 26 -54 60 -62 76 -14 28 -14
30 22 60 21 18 54 41 75 51 21 10 49 24 63 31 30 16 32 16 62 5z m-1403 -145
c6 -8 13 -38 15 -67 1 -30 13 -116 25 -191 13 -75 21 -148 17 -161 -6 -25 -28
-39 -91 -55 -82 -22 -161 -45 -207 -59 -68 -21 -88 -12 -88 40 1 102 21 289
34 315 17 33 71 82 90 82 12 0 50 -69 84 -152 13 -32 27 -36 36 -11 6 16 -29
122 -45 133 -24 18 -15 90 12 90 6 0 24 11 41 25 33 28 60 32 77 11z m1132 -8
c8 -7 28 -31 44 -53 28 -37 174 -187 278 -284 72 -67 71 -70 -75 -136 -18 -8
-63 -28 -101 -45 -37 -16 -76 -30 -87 -30 -24 0 -70 39 -180 155 -47 49 -106
110 -131 136 -26 25 -52 56 -58 67 -11 21 -6 52 10 52 8 0 121 69 144 88 30
24 103 62 121 62 11 0 27 -6 35 -12z m3318 -24 c12 -15 21 -33 21 -40 0 -8 5
-14 10 -14 6 0 10 -6 10 -14 0 -7 13 -27 28 -42 23 -23 102 -154 102 -168 0
-2 -13 -19 -30 -37 -16 -19 -30 -37 -30 -40 0 -4 -19 -12 -43 -18 -33 -10 -43
-18 -44 -34 -2 -27 -80 -96 -109 -97 -27 0 -37 12 -62 75 -11 28 -24 49 -29
48 -5 -1 -10 14 -11 34 -3 37 -27 93 -40 93 -13 0 -34 87 -27 109 3 12 14 25
23 30 9 5 53 39 97 75 44 36 88 65 97 65 9 1 26 -11 37 -25z m-5372 -56 c-3
-8 -6 -5 -6 6 -1 11 2 17 5 13 3 -3 4 -12 1 -19z m1719 -138 c16 -14 47 -47
68 -74 52 -65 77 -87 89 -79 6 3 7 1 3 -6 -5 -8 24 -43 78 -95 47 -46 86 -88
86 -93 0 -6 -8 -17 -17 -25 -26 -21 -319 -148 -343 -148 -22 0 -33 10 -105 95
-27 33 -67 79 -89 102 -21 24 -36 43 -32 43 6 0 -24 36 -77 92 -50 52 -21 90
98 126 11 3 24 9 30 14 27 23 161 85 171 79 6 -3 24 -17 40 -31z m3365 10 c10
-6 19 -17 19 -25 0 -8 5 -15 10 -15 6 0 10 -12 10 -27 1 -33 33 -106 43 -96 4
3 7 -5 7 -20 0 -14 4 -28 9 -31 10 -7 3 -44 -10 -52 -12 -7 -89 17 -89 28 0 4
-12 8 -27 8 -26 0 -26 -1 12 -21 22 -12 42 -25 43 -30 2 -5 10 -9 17 -9 20 0
65 -58 59 -75 -4 -9 4 -19 20 -26 30 -14 33 -37 8 -70 -10 -13 -23 -35 -30
-49 -8 -14 -31 -37 -53 -52 -24 -17 -39 -36 -39 -48 0 -13 -12 -28 -30 -38
-16 -9 -37 -32 -47 -49 -10 -18 -22 -34 -28 -34 -5 -1 -20 -3 -33 -4 -30 -3
-41 -15 -14 -15 23 0 42 -27 42 -59 0 -29 -54 -86 -105 -111 -25 -12 -48 -27
-53 -34 -4 -7 -16 -18 -27 -24 -18 -10 -16 -11 15 -12 34 0 54 10 129 65 19
14 39 25 45 25 23 0 41 -92 36 -180 l-5 -85 -40 -6 c-32 -4 -36 -7 -20 -13 94
-34 99 -49 42 -134 -25 -38 -53 -75 -62 -82 -8 -7 -15 -19 -15 -26 0 -8 -4
-14 -10 -14 -5 0 -10 -7 -10 -15 0 -8 -4 -15 -9 -15 -5 0 -12 -9 -16 -20 -9
-29 -111 -112 -140 -114 -14 0 -25 -4 -25 -8 0 -5 -7 -8 -15 -8 -16 0 -16 20
0 32 6 4 -7 8 -27 8 -21 0 -38 5 -38 10 0 6 -11 10 -24 10 -14 0 -31 6 -38 13
-32 29 -61 38 -99 32 -31 -5 -39 -4 -39 8 0 13 -10 18 -62 32 -5 2 -15 3 -23
4 -17 1 -21 31 -5 31 6 0 18 15 26 33 9 17 46 58 83 90 36 31 95 84 131 117
36 33 78 64 95 68 27 8 85 -1 130 -19 34 -13 89 -19 103 -10 14 8 -33 24 -111
36 -51 8 -72 40 -55 82 7 16 19 28 26 26 6 -3 12 0 12 6 0 6 -9 11 -20 11 -11
0 -20 -4 -20 -10 0 -5 -5 -10 -10 -10 -6 0 -24 -10 -40 -21 -23 -18 -37 -21
-72 -16 -42 6 -139 52 -146 69 -2 4 -13 8 -25 8 -36 1 -107 37 -107 55 0 18
38 54 57 55 7 0 33 11 59 25 26 14 53 25 60 25 8 0 14 5 14 10 0 6 6 10 14 10
8 0 28 11 44 25 17 14 35 25 40 25 6 0 33 12 59 26 26 14 62 26 79 27 25 1 35
8 50 35 11 20 33 41 52 49 18 7 41 22 51 32 11 11 30 25 42 31 38 21 144 101
146 111 1 5 -1 5 -4 -1 -2 -5 -9 -8 -14 -5 -5 4 -17 2 -26 -4 -23 -12 -69 11
-76 39 -3 12 -13 20 -25 20 -12 0 -27 8 -34 19 -15 21 -128 84 -170 94 -15 4
-30 3 -33 -3 -3 -5 3 -10 15 -10 11 0 34 -16 51 -35 17 -19 35 -35 41 -35 5 0
16 -7 24 -15 9 -8 25 -15 38 -15 30 0 106 -51 106 -70 0 -21 -37 -55 -69 -65
-14 -4 -42 -20 -64 -36 -22 -16 -45 -29 -51 -29 -6 0 -28 -11 -48 -25 -43 -29
-55 -30 -105 -9 -21 9 -47 20 -58 24 -28 11 -137 59 -157 71 -10 5 -26 9 -36
9 -28 0 -62 29 -62 54 0 27 18 45 85 80 62 34 155 91 175 108 8 7 36 13 62 13
47 0 48 1 44 27 -4 24 2 31 47 59 51 31 77 34 147 14 23 -6 24 -5 8 8 -10 8
-18 26 -18 40 0 21 14 36 72 77 77 54 80 55 109 40z m-2215 -105 c6 -8 16 -15
22 -15 6 0 15 -6 19 -13 10 -15 113 -97 123 -97 4 0 12 -12 19 -26 15 -33 -5
-60 -53 -69 -44 -9 -86 -26 -86 -36 0 -10 -99 -39 -133 -39 -14 0 -44 16 -69
36 -23 20 -61 52 -84 70 -22 19 -49 40 -59 48 -24 17 -8 70 23 74 12 2 22 8
22 13 0 5 12 9 28 9 15 0 38 7 51 17 77 53 150 65 177 28z m-1524 -100 c21
-28 43 -49 48 -47 6 1 9 -1 8 -5 -4 -16 23 -53 34 -47 6 4 8 3 5 -3 -6 -10 30
-70 64 -108 82 -91 99 -115 99 -138 0 -21 -6 -28 -27 -32 -64 -13 -133 -37
-133 -46 0 -5 -11 -9 -24 -9 -14 0 -28 -4 -31 -10 -3 -5 -26 -10 -49 -10 -25
0 -48 -6 -55 -14 -15 -17 -60 -28 -131 -29 l-55 -2 -11 75 c-15 100 -34 286
-34 336 0 41 14 64 38 64 8 0 33 9 56 19 110 51 132 60 146 58 8 -1 31 -25 52
-52z m4240 28 c24 -28 98 -193 98 -219 0 -12 -6 -29 -14 -37 -13 -12 -11 -17
15 -36 17 -13 29 -31 29 -44 0 -28 -59 -109 -148 -204 -70 -76 -110 -93 -130
-56 -6 9 -17 18 -27 19 -9 1 -14 0 -11 -3 3 -3 1 -14 -5 -25 -8 -15 -7 -24 5
-37 23 -25 20 -87 -5 -122 -38 -54 -249 -259 -265 -259 -9 0 -27 11 -40 26
-20 20 -24 36 -24 84 0 32 -4 61 -9 65 -6 3 -10 38 -11 78 -3 184 -1 188 78
180 l47 -5 -35 19 c-56 29 -53 62 12 133 29 32 63 72 76 89 24 32 72 44 72 18
0 -8 9 -22 20 -32 19 -18 20 -17 20 1 0 11 -4 24 -10 30 -5 5 -13 30 -16 55
-7 50 10 79 47 79 15 0 19 7 19 33 0 26 10 43 50 82 28 27 50 54 50 60 0 11
56 42 81 44 9 0 23 -7 31 -16z m-2978 -157 c70 -70 84 -88 79 -108 -4 -12 -11
-26 -17 -30 -6 -4 18 -8 54 -8 59 -1 68 -3 94 -30 16 -17 34 -30 40 -30 19 0
67 -44 70 -65 2 -11 -1 -26 -7 -32 -11 -15 -8 -16 60 -17 40 -1 56 -6 71 -24
11 -12 24 -22 29 -22 6 0 27 -11 47 -25 21 -14 42 -22 48 -19 7 4 8 2 4 -4 -4
-7 6 -17 26 -26 47 -21 91 -49 105 -66 19 -23 16 -68 -4 -72 -10 -2 19 -4 63
-4 90 1 128 -17 122 -58 -2 -17 -11 -22 -45 -24 -24 -2 -43 -8 -43 -14 0 -10
-19 -8 -97 8 -22 4 -33 2 -33 -5 0 -6 -17 -11 -40 -11 -38 0 -39 1 -28 20 7
11 22 20 33 20 21 0 58 19 40 20 -5 1 1 6 15 12 23 10 23 11 5 15 -11 3 -24 9
-30 14 -14 14 -43 11 -52 -6 -5 -9 -31 -17 -68 -21 -33 -3 -80 -15 -105 -26
-75 -34 -177 -11 -267 62 -35 28 -73 50 -95 54 -32 6 -38 11 -38 33 0 24 31
63 62 77 7 3 -21 3 -62 0 -63 -4 -79 -2 -98 13 -116 89 -133 111 -106 138 9 8
24 15 34 15 10 0 20 7 24 15 3 8 16 15 29 15 13 0 27 4 33 9 5 5 20 11 34 14
21 4 20 4 -7 6 -18 0 -33 -3 -33 -9 0 -5 -13 -10 -29 -10 -17 0 -33 -4 -36
-10 -3 -5 -15 -10 -25 -10 -10 0 -32 -8 -48 -17 -28 -16 -30 -16 -66 6 -20 13
-55 38 -79 57 -23 18 -53 42 -66 51 -83 62 -82 86 4 113 22 7 60 22 85 35 25
12 56 27 70 32 14 6 41 18 60 26 62 29 91 17 184 -77z m-1600 19 c7 -22 13
-62 15 -90 1 -27 9 -62 16 -78 8 -15 9 -24 3 -21 -11 7 -7 -77 8 -167 9 -54
-24 -85 -93 -88 -29 -1 -62 -4 -75 -7 -34 -8 -178 -26 -211 -27 -47 -1 -54 17
-67 173 -6 79 -14 148 -16 152 -3 5 0 23 6 42 12 36 38 51 145 81 69 19 163
52 185 65 8 5 28 8 44 7 24 -2 31 -8 40 -42z m2190 -45 c93 -47 106 -57 106
-79 0 -20 -34 -51 -56 -51 -17 0 -76 -29 -84 -41 -3 -4 -17 -10 -31 -12 -15
-3 -44 -14 -66 -26 l-41 -20 -53 26 c-30 15 -55 30 -57 35 -2 4 -9 8 -15 8
-17 0 -67 48 -67 64 0 23 49 63 84 69 19 3 47 14 62 24 31 20 88 40 119 42 11
0 56 -17 99 -39z m-2652 -68 c23 -25 34 -354 14 -371 -9 -8 -51 -12 -110 -12
-74 0 -96 -3 -96 -13 0 -7 13 -16 29 -19 39 -8 134 3 143 17 5 7 18 1 36 -17
24 -23 30 -39 35 -90 3 -34 11 -103 17 -154 17 -140 24 -135 -175 -131 -151 3
-166 5 -185 24 -25 24 -25 23 -15 189 7 131 18 165 52 165 18 0 17 7 -7 37
-17 22 -19 36 -15 87 4 34 7 79 9 101 5 68 27 135 52 154 13 10 44 22 69 25
25 4 45 10 45 14 0 4 20 9 44 10 30 1 48 -4 58 -16z m1560 -3 c27 -15 58 -41
152 -131 91 -88 91 -84 -4 -141 -39 -23 -42 -27 -20 -27 25 0 113 30 126 43
15 15 54 6 80 -18 15 -14 34 -23 41 -20 8 2 11 0 8 -5 -3 -5 3 -15 15 -22 11
-7 20 -23 20 -35 0 -22 -26 -56 -38 -49 -4 2 -13 -2 -19 -10 -7 -7 -9 -15 -4
-19 5 -3 11 0 13 6 2 6 27 14 54 16 55 6 98 -11 144 -53 14 -13 44 -41 67 -62
48 -44 49 -74 5 -90 -15 -5 -49 -17 -77 -26 -27 -10 -61 -19 -75 -21 -26 -4
-102 -28 -158 -51 -47 -20 -55 -19 -142 31 -44 25 -84 45 -90 45 -5 0 -10 5
-10 10 0 6 -5 10 -11 10 -16 0 -48 42 -49 63 0 9 7 17 15 17 8 0 15 4 15 9 0
6 19 14 43 20 36 9 29 10 -48 6 -66 -3 -97 0 -115 10 -34 19 -71 20 -64 1 8
-22 -32 -56 -66 -56 -16 0 -39 -4 -52 -9 -59 -24 -252 -81 -273 -81 -14 0 -44
-6 -67 -14 -85 -27 -124 -35 -179 -40 -31 -3 -68 -10 -83 -16 -68 -25 -116 0
-116 61 0 27 -7 65 -37 205 -20 91 -12 106 64 129 32 9 75 23 96 31 20 8 47
14 60 14 12 0 38 10 57 22 19 12 54 22 77 23 24 2 49 7 55 12 25 20 118 44
140 37 12 -3 34 -18 49 -33 33 -32 99 -119 99 -131 0 -4 -19 -32 -43 -62 -51
-62 -60 -81 -44 -97 21 -21 54 -13 65 18 11 32 57 81 76 81 7 0 33 -13 57 -30
52 -35 59 -36 59 -11 0 19 42 73 54 72 19 -3 26 0 26 10 0 7 -12 9 -32 6 -18
-3 -51 -8 -73 -12 -39 -6 -42 -5 -109 59 -37 36 -71 66 -75 66 -6 0 -10 6 -40
64 -20 36 -6 58 45 71 21 6 60 21 86 33 26 12 49 22 51 22 3 0 22 8 43 17 22
9 47 18 58 20 10 2 26 8 35 13 21 12 38 12 63 -1z m1393 -110 c50 -24 95 -47
100 -52 6 -5 33 -21 60 -36 46 -24 50 -29 49 -61 0 -45 8 -49 63 -38 35 8 54
6 87 -6 23 -9 52 -16 64 -16 13 0 21 -4 18 -9 -3 -4 11 -17 32 -27 20 -10 39
-21 42 -24 3 -3 49 -27 103 -54 53 -26 100 -52 103 -57 10 -17 -8 -49 -37 -64
-16 -9 -29 -13 -29 -10 0 3 -19 -5 -42 -19 -24 -13 -61 -28 -83 -31 -22 -4
-51 -15 -65 -25 -43 -30 -65 -32 -93 -10 -14 11 -61 36 -103 56 l-76 35 6 39
c5 34 4 40 -12 40 -10 0 -33 -11 -52 -25 -36 -27 -65 -26 -110 5 -14 9 -33 20
-42 23 -21 8 -24 50 -4 66 7 6 37 18 65 27 30 8 51 21 51 29 0 7 12 16 28 18
15 3 5 4 -23 2 -27 -1 -81 -14 -120 -28 -80 -30 -110 -33 -145 -12 -14 8 -32
17 -40 21 -8 4 -28 17 -45 29 -16 12 -39 25 -50 28 -11 4 -38 22 -60 42 -22
19 -43 35 -47 35 -5 0 -8 11 -8 25 0 18 8 29 28 38 15 6 29 14 32 18 3 3 20 9
38 12 19 4 46 16 62 27 15 11 35 20 44 20 9 0 16 4 16 9 0 13 38 18 75 10 17
-3 71 -26 120 -50z m826 39 c22 -6 39 -15 39 -20 0 -4 14 -8 30 -8 17 0 30 -4
30 -9 0 -9 135 -71 156 -71 8 0 14 -4 14 -9 0 -5 10 -11 22 -13 14 -2 26 -14
32 -30 12 -36 -2 -49 -109 -104 -44 -23 -96 -51 -115 -62 -19 -12 -59 -32 -88
-46 -59 -28 -72 -26 -177 29 -33 17 -69 36 -80 42 -11 5 -43 22 -71 36 -29 15
-59 27 -68 27 -8 0 -20 9 -26 20 -12 22 -5 60 10 60 11 0 174 74 205 92 24 15
148 77 154 78 2 0 21 -5 42 -12z m1435 -126 c7 -10 15 -37 19 -60 4 -23 11
-44 16 -48 10 -6 12 -54 3 -78 -3 -9 -17 -16 -29 -16 -13 0 -27 -5 -30 -10 -4
-6 -3 -9 2 -8 4 1 22 -1 39 -4 29 -6 34 -14 53 -72 12 -36 21 -75 21 -87 0
-21 12 -74 31 -136 8 -25 6 -40 -5 -65 l-16 -33 -87 -3 c-49 -2 -106 -7 -128
-12 -66 -15 -105 25 -119 123 -4 26 -11 47 -17 47 -5 0 -9 11 -9 24 0 13 -7
58 -16 99 -18 87 -10 113 34 123 61 14 62 14 55 45 -4 23 0 35 21 55 14 15 26
31 26 35 0 15 94 99 110 99 8 0 20 -8 26 -18z m-6106 -183 c0 -11 5 -17 10
-14 6 3 10 2 10 -4 0 -5 -5 -11 -11 -13 -6 -2 -15 -27 -20 -55 -6 -29 -16 -65
-24 -80 -15 -27 -15 -27 -15 31 0 50 5 83 26 154 6 19 24 4 24 -19z m1415 8
c10 -15 15 -45 14 -83 0 -32 4 -90 10 -129 16 -108 14 -143 -9 -155 -19 -10
-255 -40 -342 -43 -55 -2 -73 21 -87 111 -7 42 -19 110 -28 151 -15 73 -15 74
9 97 23 23 55 29 268 50 30 3 61 9 70 14 30 18 79 11 95 -13z m3297 -191 c29
-13 94 -36 145 -52 51 -16 95 -35 97 -42 3 -7 1 -22 -5 -35 -12 -24 -170 -140
-209 -152 -22 -7 -81 -48 -118 -82 -10 -10 -24 -8 -65 8 -29 11 -63 28 -77 38
-22 16 -132 33 -223 36 -10 0 -25 8 -32 19 -20 27 6 63 52 72 23 4 37 14 43
29 8 20 37 44 85 71 11 6 31 16 45 24 14 7 32 17 40 22 45 26 137 67 152 68
10 0 41 -11 70 -24z m1102 -28 c42 -151 48 -178 42 -202 -3 -14 -12 -26 -20
-26 -22 0 -14 -28 11 -35 47 -11 82 -73 56 -99 -4 -4 -6 -40 -5 -80 1 -41 -2
-117 -7 -169 -8 -79 -15 -107 -42 -157 -21 -39 -37 -59 -46 -56 -7 3 -13 1
-13 -5 0 -5 -11 -2 -25 7 -15 9 -56 18 -105 21 -44 3 -80 10 -80 14 0 5 -12 8
-27 8 -62 1 -73 3 -73 10 0 4 -16 8 -36 9 -20 1 -42 6 -49 12 -6 5 -15 7 -19
2 -4 -4 -12 1 -17 11 -7 12 -17 16 -30 12 -13 -4 -19 -2 -19 9 0 12 -10 16
-36 16 -23 0 -33 4 -28 11 3 6 -1 10 -12 9 -11 -1 -29 -2 -41 -1 -37 2 -28 43
25 116 26 36 90 127 142 202 l95 138 60 -1 c33 -1 100 -6 150 -12 49 -6 92 -9
95 -6 9 9 -25 24 -50 22 -35 -2 -113 12 -127 24 -24 19 -13 38 55 106 37 37
78 84 92 104 38 57 65 52 84 -14z m-3345 -23 c26 -25 53 -45 59 -45 6 0 12 -3
14 -8 2 -4 27 -22 56 -41 44 -28 51 -37 46 -55 -3 -11 -7 -25 -8 -31 0 -5 26
-12 60 -16 43 -4 67 -12 82 -27 12 -12 26 -22 30 -22 4 0 9 -11 10 -24 1 -21
-5 -27 -48 -41 -27 -9 -52 -21 -55 -26 -4 -5 -16 -9 -28 -9 -12 0 -38 -9 -58
-19 -20 -11 -53 -23 -73 -26 -30 -6 -34 -10 -25 -21 11 -13 2 -19 -23 -15 -4
0 -15 -10 -24 -23 -9 -15 -22 -22 -30 -19 -8 3 -14 1 -14 -5 0 -6 -8 -8 -19
-5 -11 3 -21 -2 -24 -11 -4 -9 -16 -16 -27 -16 -12 0 -28 -7 -36 -15 -9 -8
-33 -18 -55 -21 -21 -4 -39 -10 -39 -15 0 -5 -9 -9 -19 -9 -11 0 -26 -7 -35
-15 -8 -8 -21 -15 -29 -15 -9 0 -17 -4 -19 -9 -1 -6 -25 -15 -53 -22 -43 -10
-92 -29 -157 -60 -24 -12 -85 -11 -93 1 -3 6 -15 10 -26 10 -10 0 -19 4 -19 8
0 18 -74 82 -95 82 -9 0 6 -64 16 -71 5 -3 13 -19 18 -37 11 -38 -5 -56 -58
-59 -19 -1 -37 -7 -39 -12 -2 -5 -9 -8 -16 -5 -8 3 -21 -2 -30 -11 -9 -9 -24
-15 -33 -13 -10 1 -23 -1 -30 -5 -6 -4 -33 -10 -60 -13 -26 -3 -59 -14 -73
-23 -14 -10 -44 -21 -67 -24 -38 -6 -44 -4 -67 24 -14 17 -26 35 -26 40 0 9
-6 18 -36 52 -58 67 -55 126 6 138 19 4 58 12 85 19 28 6 61 11 73 11 13 -1
69 11 125 25 96 24 120 26 158 10 11 -5 24 0 36 14 20 21 151 69 190 70 12 0
24 4 27 9 4 5 24 12 46 16 23 4 55 14 72 22 17 9 50 18 75 21 24 2 46 9 49 13
3 5 14 9 24 9 10 0 26 7 34 16 14 13 32 18 84 23 7 0 11 5 8 9 -3 5 5 8 17 7
12 -1 28 2 35 8 7 6 30 14 50 18 32 6 29 7 -25 8 -36 1 -63 -3 -63 -9 0 -5 -8
-10 -19 -10 -10 0 -35 -7 -55 -15 -20 -8 -36 -13 -36 -10 0 4 -31 -6 -105 -35
-19 -7 -66 -20 -145 -40 -19 -5 -65 -18 -101 -28 -37 -11 -100 -23 -140 -27
-74 -7 -74 -7 -91 22 -9 16 -19 40 -22 54 -5 30 -13 50 -42 117 -13 29 -24 59
-24 66 0 23 34 43 98 57 34 7 62 16 62 19 0 4 13 5 30 2 16 -2 38 -1 47 3 10
3 19 6 20 6 2 0 17 5 35 11 38 11 134 35 193 48 22 4 65 15 95 24 30 9 64 18
75 20 11 2 43 11 70 19 68 22 83 24 133 26 38 1 49 -4 91 -44z m1528 13 c15
-7 35 -20 44 -28 37 -36 70 -60 79 -60 6 0 13 -7 16 -15 4 -8 9 -13 13 -11 3
2 15 0 26 -5 16 -6 12 -8 -17 -8 -22 -1 -38 4 -38 10 0 6 -6 9 -14 6 -7 -3
-24 2 -36 10 -16 11 -44 15 -99 14 -77 -2 -131 10 -131 28 0 5 17 19 38 32 69
43 77 45 119 27z m-809 -60 c22 -22 14 -46 -18 -52 -16 -3 -43 -9 -59 -12 -28
-5 -45 7 -46 31 0 6 22 18 50 27 62 21 59 20 73 6z m-148 -84 c0 -8 -13 -17
-30 -21 -17 -3 -33 -10 -36 -14 -3 -5 -18 -9 -34 -9 -16 0 -41 -5 -56 -10 -26
-10 -54 0 -54 20 0 10 61 32 68 25 3 -3 13 1 21 9 14 13 95 26 114 18 4 -2 7
-10 7 -18z m-1555 -67 c8 -12 15 -32 15 -44 0 -12 11 -47 24 -78 14 -30 22
-55 19 -55 -3 0 1 -8 9 -17 48 -55 21 -112 -58 -124 -122 -19 -191 -31 -220
-40 -44 -13 -125 -11 -154 4 -22 12 -27 11 -48 -11 l-23 -24 33 -21 c23 -16
35 -34 42 -62 5 -22 12 -42 15 -45 3 -3 7 -12 8 -20 5 -30 15 -75 21 -90 3 -8
7 -25 8 -37 3 -25 -16 -29 -126 -25 -61 3 -91 23 -125 89 -11 21 -30 55 -42
75 -27 45 -29 75 -6 100 9 10 13 21 9 26 -4 4 -47 8 -95 8 -48 1 -96 4 -107 7
-10 3 -32 8 -47 11 -43 10 -56 54 -63 220 -8 161 -8 160 60 159 17 0 97 -1
177 -2 142 -2 148 -2 172 -26 15 -15 27 -42 31 -68 8 -56 27 -137 36 -162 5
-11 11 -29 15 -40 4 -14 8 -16 14 -7 4 8 2 39 -6 70 -8 31 -17 74 -20 95 -3
20 -9 37 -14 37 -6 0 -7 21 0 62 3 21 67 36 181 43 69 4 145 10 170 14 57 9
77 4 95 -22z m4568 -24 c-7 -2 -19 -2 -25 0 -7 3 -2 5 12 5 14 0 19 -2 13 -5z
m194 -15 c22 -21 23 -27 23 -193 0 -129 -4 -184 -15 -216 -33 -94 -69 -154
-86 -144 -4 3 -10 1 -14 -5 -3 -6 -46 -10 -96 -10 -50 0 -99 -4 -109 -10 -15
-8 -19 -5 -24 23 -3 18 1 78 9 132 11 79 12 118 4 185 -6 47 -13 114 -16 149
-6 83 4 91 105 91 46 0 71 4 67 10 -4 6 19 10 61 10 56 0 72 -4 91 -22z
m-5440 -395 c13 -13 26 -36 29 -51 3 -15 16 -61 29 -102 32 -106 35 -123 25
-140 -7 -11 -13 -12 -35 -2 -15 7 -30 10 -34 7 -5 -2 -19 5 -32 16 -13 11 -29
24 -35 27 -45 29 -136 191 -132 236 3 30 4 31 68 36 78 6 88 4 117 -27z"/>
<path d="M9028 9212 c12 -8 72 -4 72 4 0 2 -19 4 -42 4 -26 0 -38 -4 -30 -8z"/>
<path d="M8885 8510 c3 -5 -3 -10 -14 -10 -12 0 -21 -4 -21 -10 0 -15 47 -12
63 4 7 8 25 16 38 19 13 2 2 5 -24 6 -30 0 -46 -3 -42 -9z"/>
<path d="M8808 8483 c7 -3 16 -2 19 1 4 3 -2 6 -13 5 -11 0 -14 -3 -6 -6z"/>
<path d="M9543 8383 c-7 -15 -13 -36 -13 -47 1 -16 5 -13 20 14 11 19 19 41
20 48 0 21 -14 13 -27 -15z"/>
<path d="M9456 8181 c-4 -7 -5 -15 -2 -18 9 -9 19 4 14 18 -4 11 -6 11 -12 0z"/>
<path d="M9430 8129 c0 -11 4 -18 10 -14 5 3 7 12 3 20 -7 21 -13 19 -13 -6z"/>
<path d="M8841 8056 c10 -10 89 -14 94 -5 4 5 -16 9 -46 9 -29 0 -50 -2 -48
-4z"/>
<path d="M8795 8030 c3 -5 8 -10 11 -10 2 0 4 5 4 10 0 6 -5 10 -11 10 -5 0
-7 -4 -4 -10z"/>
<path d="M8892 7947 c-39 -73 -40 -112 -3 -112 33 0 71 50 52 68 -11 9 -13 9
-7 0 4 -7 2 -13 -3 -13 -20 0 -12 42 9 47 34 9 22 75 -13 73 -1 0 -17 -29 -35
-63z"/>
<path d="M8900 7489 c0 -5 5 -7 10 -4 6 3 10 8 10 11 0 2 -4 4 -10 4 -5 0 -10
-5 -10 -11z"/>
<path d="M8534 7412 c-6 -4 -15 -27 -21 -52 -6 -25 -14 -55 -18 -67 -11 -35
24 -30 63 8 35 34 38 45 21 83 -13 27 -30 38 -45 28z"/>
<path d="M8730 7161 c-16 -24 -17 -29 -5 -25 17 7 40 43 32 50 -3 3 -15 -9
-27 -25z"/>
<path d="M8680 7079 c0 -5 5 -7 10 -4 6 3 10 8 10 11 0 2 -4 4 -10 4 -5 0 -10
-5 -10 -11z"/>
<path d="M8630 9190 c14 -9 128 -5 138 5 3 3 -30 5 -74 5 -53 0 -74 -3 -64
-10z"/>
<path d="M8545 9170 c-18 -8 -18 -9 5 -9 14 0 34 4 45 9 18 8 18 9 -5 9 -14 0
-34 -4 -45 -9z"/>
<path d="M8661 8901 c-9 -6 -6 -8 13 -8 14 0 23 3 20 8 -7 11 -15 11 -33 0z"/>
<path d="M8430 8390 c0 -5 -10 -10 -22 -10 -32 -1 -110 -39 -83 -41 31 -2 50
2 53 12 2 5 11 9 20 9 10 1 33 9 52 20 l35 19 -27 1 c-16 0 -28 -4 -28 -10z"/>
<path d="M8270 7875 c0 -8 5 -15 10 -15 6 0 10 4 10 9 0 5 8 12 18 14 10 3 6
5 -10 6 -19 1 -28 -4 -28 -14z"/>
<path d="M8150 9091 c0 -5 -8 -12 -17 -14 -10 -3 -3 -5 15 -6 18 0 31 3 27 8
-3 5 7 12 22 14 23 3 21 4 -9 6 -21 0 -38 -3 -38 -8z"/>
<path d="M8180 8780 c-12 -8 -11 -10 8 -10 12 0 22 5 22 10 0 13 -11 13 -30 0z"/>
<path d="M8136 8773 c-9 -9 -78 -33 -97 -33 -20 0 -56 -26 -47 -35 3 -3 14 -2
25 3 54 27 91 41 112 44 14 2 26 9 29 16 4 13 -10 17 -22 5z"/>
<path d="M7922 8209 c-13 -5 -20 -13 -17 -19 4 -6 -8 -11 -27 -11 -31 -2 -31
-2 -5 -6 31 -5 84 15 92 34 5 15 -10 16 -43 2z"/>
<path d="M7800 8940 l-23 -20 27 0 c16 0 25 4 21 10 -3 6 -1 10 4 10 6 0 11 5
11 10 0 16 -15 12 -40 -10z"/>
<path d="M7670 8880 c-12 -8 -10 -10 8 -10 13 0 20 4 17 10 -7 12 -6 12 -25 0z"/>
<path d="M7628 8853 c7 -3 16 -2 19 1 4 3 -2 6 -13 5 -11 0 -14 -3 -6 -6z"/>
<path d="M7560 8825 c-7 -8 -20 -15 -29 -16 -11 0 -12 -2 -3 -6 16 -6 72 16
72 28 0 14 -26 10 -40 -6z"/>
<path d="M7413 8743 c-18 -7 -16 -23 2 -23 8 0 15 7 15 15 0 8 -1 15 -2 14 -2
0 -9 -3 -15 -6z"/>
<path d="M7365 8710 c-3 -5 -1 -10 4 -10 6 0 11 5 11 10 0 6 -2 10 -4 10 -3 0
-8 -4 -11 -10z"/>
<path d="M7687 8713 c-14 -14 -6 -42 13 -48 30 -9 52 12 39 36 -10 19 -39 26
-52 12z"/>
<path d="M7265 8645 c-16 -14 -26 -25 -22 -25 14 0 67 34 67 42 0 14 -14 8
-45 -17z"/>
<path d="M7731 8622 c-11 -11 -9 -13 15 -10 15 2 29 8 31 15 6 16 -30 12 -46
-5z"/>
<path d="M3201 8398 c2 -18 7 -38 11 -44 5 -7 10 -30 13 -54 2 -27 12 -50 29
-67 14 -13 27 -34 29 -46 3 -12 5 -2 5 23 0 25 3 57 7 73 6 24 4 28 -22 38
-24 8 -32 19 -43 59 -15 56 -33 67 -29 18z"/>
<path d="M3047 8260 c6 -34 23 -50 23 -22 0 12 -4 22 -9 22 -5 0 -11 6 -14 13
-2 6 -2 1 0 -13z"/>
<path d="M3083 8151 c4 -18 17 -55 29 -82 17 -37 24 -45 29 -31 4 9 2 25 -3
36 -6 10 -7 36 -4 57 5 30 3 39 -8 39 -8 0 -22 3 -32 7 -15 5 -16 2 -11 -26z"/>
<path d="M3297 8167 c-7 -19 2 -57 14 -57 11 0 11 41 0 58 -7 11 -9 11 -14 -1z"/>
<path d="M3330 8089 c0 -20 23 -69 33 -69 14 0 7 37 -13 60 -14 16 -20 18 -20
9z"/>
<path d="M4522 8659 c-16 -70 -15 -93 6 -112 38 -35 82 -9 82 48 0 22 -11 46
-32 73 -18 23 -36 41 -39 41 -3 1 -11 -22 -17 -50z"/>
<path d="M6365 8270 c-3 -5 1 -10 10 -10 9 0 13 5 10 10 -3 6 -8 10 -10 10 -2
0 -7 -4 -10 -10z"/>
<path d="M4512 8205 c-16 -35 -15 -42 8 -65 17 -17 24 -18 45 -8 29 13 43 53
28 77 -6 9 -23 17 -40 19 -23 2 -32 -2 -41 -23z"/>
<path d="M5730 7830 c0 -6 8 -14 18 -17 9 -4 20 -11 24 -17 4 -6 10 -7 15 -3
4 5 -3 17 -17 27 -28 22 -40 25 -40 10z"/>
<path d="M5661 7773 c-28 -19 -28 -67 1 -87 28 -20 54 -6 63 34 12 54 -23 83
-64 53z"/>
<path d="M4192 7778 c-34 -43 -19 -98 26 -98 34 0 52 16 52 48 0 52 -50 84
-78 50z"/>
<path d="M4313 7473 c9 -2 23 -2 30 0 6 3 -1 5 -18 5 -16 0 -22 -2 -12 -5z"/>
<path d="M6181 7441 c-16 -29 -13 -49 9 -71 28 -28 66 -26 86 4 13 22 14 29 2
53 -17 37 -80 46 -97 14z"/>
<path d="M6755 7408 c-11 -27 -11 -37 -1 -53 26 -40 78 -28 97 23 14 37 -5 62
-47 62 -30 0 -37 -5 -49 -32z"/>
<path d="M5111 6496 c-11 -13 -11 -19 0 -32 11 -14 13 -14 21 0 5 9 5 23 0 32
-8 14 -10 14 -21 0z"/>
<path d="M6663 6400 c-90 -83 -123 -103 -152 -92 -11 4 -56 40 -100 80 -80 72
-111 88 -111 54 0 -25 45 -66 61 -57 7 5 10 4 6 -2 -4 -6 10 -24 30 -39 21
-16 57 -48 80 -72 50 -50 63 -50 120 6 21 21 65 58 98 82 75 55 83 63 87 86 2
13 -4 20 -19 22 -15 2 -44 -18 -100 -68z"/>
<path d="M7303 6420 c-37 -15 -46 -69 -16 -102 21 -24 48 -23 84 3 40 28 39
63 -3 89 -37 22 -35 22 -65 10z"/>
<path d="M5320 6360 c-23 -23 -18 -43 18 -82 29 -32 53 -35 77 -11 33 33 -6
113 -56 113 -10 0 -28 -9 -39 -20z"/>
<path d="M7510 6280 c8 -5 11 -10 5 -10 -5 0 16 -25 47 -55 37 -36 64 -55 80
-54 22 0 22 1 3 9 -11 5 -16 9 -11 9 11 1 -23 41 -35 41 -4 0 -24 16 -45 35
-20 19 -42 35 -48 35 -6 0 -4 -5 4 -10z"/>
<path d="M6266 5365 c-21 -21 -21 -69 0 -90 27 -26 77 -16 88 18 21 58 -46
113 -88 72z"/>
<path d="M7670 7320 c0 -5 7 -10 15 -10 8 0 15 5 15 10 0 6 -7 10 -15 10 -8 0
-15 -4 -15 -10z"/>
<path d="M7490 7312 c0 -14 38 -44 50 -40 6 2 -3 14 -19 26 -17 12 -31 19 -31
14z"/>
<path d="M7565 7230 c3 -5 8 -10 11 -10 2 0 4 5 4 10 0 6 -5 10 -11 10 -5 0
-7 -4 -4 -10z"/>
<path d="M8186 6813 c-4 -9 -2 -21 4 -27 7 -7 10 -2 10 17 0 31 -5 34 -14 10z"/>
<path d="M4240 6356 c0 -8 5 -18 10 -21 6 -3 10 1 10 9 0 8 -4 18 -10 21 -5 3
-10 -1 -10 -9z"/>
<path d="M3875 5940 c-8 -13 4 -32 16 -25 12 8 12 35 0 35 -6 0 -13 -4 -16
-10z"/>
<path d="M4018 5933 c-13 -3 -18 -14 -18 -36 l0 -32 20 25 c16 20 28 54 18 49
-2 -1 -11 -3 -20 -6z"/>
<path d="M4100 5768 c-24 -26 -29 -88 -5 -68 15 13 45 67 45 82 0 15 -19 8
-40 -14z"/>
<path d="M4051 5473 c-1 -13 3 -23 8 -23 5 0 12 -14 16 -30 9 -41 22 -30 17
14 -2 21 -10 36 -17 36 -7 0 -16 6 -18 13 -3 6 -6 2 -6 -10z"/>
<path d="M8320 6426 c0 -8 16 -29 35 -47 19 -19 35 -37 35 -42 0 -10 52 -81
63 -85 4 -2 7 -11 7 -19 0 -9 3 -14 6 -10 7 7 34 -17 34 -31 0 -5 7 -15 15
-22 24 -20 19 22 -5 50 -11 13 -20 26 -20 30 0 3 -20 28 -45 56 -24 27 -44 55
-45 63 0 13 -58 71 -72 71 -5 0 -8 -6 -8 -14z"/>
<path d="M8190 6386 c0 -9 5 -16 10 -16 6 0 10 4 10 9 0 6 -4 13 -10 16 -5 3
-10 -1 -10 -9z"/>
<path d="M8221 6344 c0 -11 3 -14 6 -6 3 7 2 16 -1 19 -3 4 -6 -2 -5 -13z"/>
<path d="M8542 6150 c0 -14 2 -19 5 -12 2 6 2 18 0 25 -3 6 -5 1 -5 -13z"/>
<path d="M8810 5985 c0 -8 5 -15 10 -15 6 0 10 7 10 15 0 8 -4 15 -10 15 -5 0
-10 -7 -10 -15z"/>
<path d="M9235 4760 c0 -52 3 -60 21 -64 29 -8 50 -42 57 -94 3 -24 13 -52 23
-63 18 -20 21 -68 6 -95 -8 -13 -1 -26 30 -56 22 -22 41 -38 43 -36 2 2 6 20
10 41 5 24 4 37 -4 37 -14 0 -51 73 -51 99 0 28 -30 101 -41 101 -5 0 -9 14
-9 30 0 17 -4 30 -9 30 -19 0 -19 55 0 92 11 21 15 38 10 38 -5 0 -13 -4 -16
-10 -3 -5 -17 -10 -31 -10 -13 0 -24 5 -24 10 0 6 -3 10 -7 10 -5 0 -8 -27 -8
-60z"/>
<path d="M9218 4423 c7 -3 16 -2 19 1 4 3 -2 6 -13 5 -11 0 -14 -3 -6 -6z"/>
<path d="M9772 4180 c0 -19 2 -27 5 -17 2 9 2 25 0 35 -3 9 -5 1 -5 -18z"/>
<path d="M9288 4103 c12 -2 30 -2 40 0 9 3 -1 5 -23 4 -22 0 -30 -2 -17 -4z"/>
<path d="M9553 4103 c9 -2 25 -2 35 0 9 3 1 5 -18 5 -19 0 -27 -2 -17 -5z"/>
<path d="M3666 5571 c-4 -7 -5 -15 -2 -18 9 -9 19 4 14 18 -4 11 -6 11 -12 0z"/>
<path d="M3830 5555 c0 -8 2 -15 4 -15 2 0 6 7 10 15 3 8 1 15 -4 15 -6 0 -10
-7 -10 -15z"/>
<path d="M3541 5494 c0 -11 3 -14 6 -6 3 7 2 16 -1 19 -3 4 -6 -2 -5 -13z"/>
<path d="M3780 5450 c0 -11 -4 -20 -10 -20 -5 0 -10 -6 -10 -14 0 -7 -7 -27
-15 -42 -8 -16 -15 -39 -15 -51 0 -13 -4 -23 -10 -23 -5 0 -10 -7 -10 -15 0
-9 -10 -35 -21 -57 -14 -28 -18 -43 -10 -46 6 -2 9 -9 5 -15 -3 -7 1 -4 10 7
8 10 21 43 27 72 7 30 16 54 20 54 5 0 14 18 20 40 7 22 18 45 26 51 15 13 18
79 3 79 -5 0 -10 -9 -10 -20z"/>
<path d="M3580 5403 c-6 -18 -12 -36 -12 -40 1 -4 -6 -12 -14 -16 -8 -4 -14
-21 -14 -37 0 -17 -4 -30 -10 -30 -5 0 -10 -12 -10 -27 l0 -28 16 30 c8 16 16
41 17 56 1 15 7 25 13 22 6 -2 16 14 23 35 17 49 8 81 -9 35z"/>
<path d="M3492 5160 c0 -14 2 -19 5 -12 2 6 2 18 0 25 -3 6 -5 1 -5 -13z"/>
<path d="M3471 5124 c0 -11 3 -14 6 -6 3 7 2 16 -1 19 -3 4 -6 -2 -5 -13z"/>
<path d="M3635 5111 c-3 -12 -11 -21 -16 -21 -5 0 -9 -9 -9 -19 0 -11 -4 -23
-10 -26 -5 -3 -10 -13 -10 -21 0 -25 48 34 55 68 8 34 0 49 -10 19z"/>
<path d="M3447 5053 c-5 -13 -12 -23 -16 -23 -10 0 -34 -69 -36 -105 -1 -16
-4 -37 -7 -45 -3 -8 -3 -12 -1 -7 3 4 9 5 14 1 5 -3 9 3 9 12 0 9 12 41 26 71
15 33 24 67 22 86 -3 29 -4 30 -11 10z"/>
<path d="M3631 4925 c-40 -37 -71 -45 -71 -20 0 8 -4 15 -8 15 -14 0 -42 -35
-42 -52 0 -8 -9 -23 -20 -33 -14 -12 -20 -31 -20 -58 0 -39 0 -40 20 -22 11
10 20 23 20 29 0 6 16 28 35 49 l34 39 30 -18 c24 -14 31 -26 34 -58 3 -40 4
-40 5 8 2 48 9 60 77 139 14 16 12 17 -20 17 -26 0 -45 -9 -74 -35z"/>
<path d="M3362 4837 c-6 -7 -18 -40 -27 -72 -8 -32 -19 -63 -25 -69 -5 -5 -10
-18 -10 -28 0 -10 -4 -18 -9 -18 -5 0 -13 -15 -16 -32 -4 -18 -16 -47 -26 -64
-10 -17 -19 -43 -19 -56 0 -14 -7 -31 -15 -38 -8 -7 -13 -16 -10 -20 3 -5 1
-11 -4 -14 -4 -3 -11 -20 -15 -38 -3 -18 -16 -52 -28 -76 -22 -47 -39 -157
-17 -115 6 12 19 23 30 26 14 4 19 19 25 65 4 40 13 67 25 78 11 9 19 25 19
35 0 22 26 106 41 133 6 10 17 41 25 67 8 27 19 49 24 49 6 0 10 11 10 24 0
25 29 84 59 120 12 14 13 20 4 23 -7 3 -13 11 -13 19 0 18 -14 18 -28 1z"/>
<path d="M3432 4659 c-15 -24 -15 -42 0 -37 14 5 30 46 20 52 -5 3 -13 -4 -20
-15z"/>
<path d="M3387 4529 c-9 -22 -17 -52 -17 -67 0 -16 -3 -32 -7 -36 -18 -17 -74
-211 -78 -268 -1 -24 2 -39 11 -42 8 -3 14 1 14 9 0 8 8 18 17 24 15 8 17 21
15 76 -3 50 1 73 14 93 9 14 18 37 19 51 1 15 3 34 3 43 3 28 64 78 97 79 29
2 29 2 -5 8 -26 4 -39 14 -51 37 l-15 32 -17 -39z"/>
<path d="M3007 4384 c-4 -4 -7 -14 -7 -23 0 -11 3 -12 11 -4 6 6 10 16 7 23
-2 6 -7 8 -11 4z"/>
<path d="M3275 4058 c-3 -18 -1 -46 4 -63 8 -26 9 -22 10 33 1 68 -5 81 -14
30z"/>
<path d="M7312 5463 c-7 -3 -19 -18 -28 -35 -14 -27 -14 -32 1 -54 38 -59 98
-41 111 33 1 7 -11 24 -28 38 -30 26 -34 27 -56 18z"/>
<path d="M7986 5197 c-15 -11 -17 -20 -12 -43 4 -16 12 -35 18 -41 17 -21 56
-15 74 11 33 52 -30 109 -80 73z"/>
<path d="M7282 4624 c-45 -31 -15 -94 45 -94 38 0 57 22 49 54 -13 52 -53 69
-94 40z"/>
<path d="M4573 5043 c-20 -7 -17 -89 3 -97 23 -9 22 -9 35 34 9 31 9 43 -1 55
-13 16 -17 17 -37 8z"/>
<path d="M6538 5043 c-35 -9 -36 -94 -2 -107 23 -9 78 26 82 51 3 19 -40 65
-57 62 -3 -1 -14 -3 -23 -6z"/>
<path d="M6690 4925 c0 -17 125 -111 183 -138 44 -20 47 -20 47 -7 0 6 -5 10
-11 10 -11 0 -28 14 -87 71 -32 30 -107 79 -122 79 -5 0 -10 -7 -10 -15z"/>
<path d="M8250 4783 c8 -4 21 -12 28 -20 18 -17 37 -6 21 13 -6 8 -23 14 -38
13 -16 0 -20 -3 -11 -6z"/>
<path d="M4505 4670 c-8 -27 10 -49 26 -33 13 13 8 45 -8 50 -6 2 -14 -6 -18
-17z"/>
<path d="M4540 4507 c-31 -14 -40 -26 -40 -52 0 -36 18 -44 61 -27 29 11 39
21 39 38 0 18 -24 57 -33 53 -1 0 -13 -6 -27 -12z"/>
<path d="M8630 4376 c0 -31 30 -97 42 -90 4 3 9 -10 9 -28 1 -26 3 -28 6 -9 3
13 0 33 -5 45 -6 12 -13 34 -17 49 -3 15 -10 25 -15 22 -5 -3 -7 0 -4 8 3 8 1
18 -5 22 -7 4 -11 -4 -11 -19z"/>
<path d="M8538 4178 c9 -9 15 -9 24 0 9 9 7 12 -12 12 -19 0 -21 -3 -12 -12z"/>
<path d="M5888 4463 c7 -3 16 -2 19 1 4 3 -2 6 -13 5 -11 0 -14 -3 -6 -6z"/>
<path d="M6138 4303 c-10 -2 -18 -9 -18 -14 0 -5 -12 -9 -26 -9 -38 0 -83 -28
-84 -51 0 -11 70 8 88 23 30 23 61 38 82 38 11 0 20 5 20 10 0 10 -30 12 -62
3z"/>
<path d="M5407 4220 c-16 -19 -16 -20 8 -20 14 0 25 5 25 10 0 6 8 10 18 11
14 0 14 2 -3 9 -28 12 -29 12 -48 -10z"/>
<path d="M4808 4178 c-37 -13 -38 -59 -4 -93 47 -47 86 -4 56 63 -11 23 -20
42 -22 41 -2 0 -15 -5 -30 -11z"/>
<path d="M5570 4071 c0 -5 -12 -12 -27 -14 -16 -3 -4 -4 25 -4 28 0 52 4 52 8
0 4 8 10 18 12 9 3 -2 5 -25 6 -24 0 -43 -3 -43 -8z"/>
<path d="M4530 4030 c-14 -26 3 -60 31 -60 24 0 41 38 27 63 -12 23 -45 22
-58 -3z"/>
<path d="M6948 4223 c12 -2 30 -2 40 0 9 3 -1 5 -23 4 -22 0 -30 -2 -17 -4z"/>
<path d="M8959 4139 c-20 -12 15 -23 37 -11 15 8 14 10 -4 14 -11 3 -26 2 -33
-3z"/>
<path d="M5258 3833 c-20 -5 -33 -44 -24 -68 3 -9 18 -15 40 -15 46 0 65 30
41 66 -15 24 -23 26 -57 17z"/>
<path d="M5508 3713 c7 -3 16 -2 19 1 4 3 -2 6 -13 5 -11 0 -14 -3 -6 -6z"/>
<path d="M5405 3690 c-4 -6 -9 -8 -13 -6 -4 2 -16 -2 -27 -10 -17 -13 -16 -14
17 -14 20 0 40 4 43 10 3 5 20 14 38 19 l32 9 -42 1 c-23 1 -45 -4 -48 -9z"/>
<path d="M10434 8956 c7 -14 32 -45 57 -71 104 -107 183 -190 329 -344 156
-165 313 -326 683 -701 657 -668 739 -753 784 -822 27 -40 74 -110 106 -155
31 -45 57 -84 57 -87 0 -2 13 -33 29 -68 129 -279 152 -554 67 -818 -36 -113
-123 -285 -169 -335 -10 -11 -37 -45 -60 -75 -64 -83 -314 -345 -581 -608 -70
-70 -144 -144 -165 -165 -20 -22 -79 -81 -131 -132 -181 -176 -286 -282 -452
-455 -92 -96 -204 -213 -248 -258 -44 -46 -80 -85 -80 -87 0 -1 -22 -26 -50
-55 -27 -29 -48 -56 -45 -60 3 -4 -4 -10 -15 -13 -12 -3 -20 -13 -19 -24 1
-16 2 -16 6 0 2 9 10 17 16 17 7 0 26 13 42 30 263 261 1462 1464 1583 1588
89 92 172 184 184 205 12 20 25 37 30 37 4 0 8 6 8 14 0 8 3 16 8 18 14 6 90
127 121 192 105 223 133 418 96 664 -16 108 -64 269 -100 337 -47 87 -79 142
-109 185 -18 25 -44 66 -59 93 -15 26 -31 47 -35 47 -4 0 -16 15 -27 32 -10
18 -213 228 -449 466 -237 238 -433 437 -436 442 -4 7 -165 171 -672 686 -149
152 -305 304 -312 304 -3 0 1 -11 8 -24z"/>
<path d="M2219 8860 c-24 -22 -47 -40 -51 -40 -5 0 -8 -7 -8 -15 0 -8 -4 -15
-8 -15 -14 0 -497 -495 -617 -631 -39 -44 -371 -394 -628 -662 -110 -114 -209
-218 -219 -230 -11 -12 -68 -74 -128 -137 -243 -258 -372 -482 -421 -735 -17
-89 -17 -339 0 -425 35 -171 112 -344 210 -467 21 -27 43 -59 50 -71 7 -12 17
-20 23 -16 6 4 8 3 5 -3 -12 -19 36 -71 351 -389 121 -122 207 -202 214 -198
6 4 8 3 4 -4 -6 -10 189 -212 206 -212 4 0 8 -4 8 -8 0 -5 36 -46 80 -91 44
-46 80 -81 80 -78 0 4 21 -16 46 -43 160 -171 826 -830 834 -825 6 3 10 -1 10
-9 0 -9 7 -16 16 -16 13 0 11 6 -8 28 -12 15 -30 36 -38 45 -33 40 -437 444
-464 465 -17 12 -26 22 -22 22 4 0 -156 164 -356 365 -201 201 -363 365 -361
365 2 0 -13 15 -33 33 -47 40 -366 365 -425 432 -24 27 -54 61 -67 75 -48 52
-189 257 -216 315 -72 153 -73 157 -101 300 -27 142 -15 386 26 515 42 130
104 254 185 365 36 50 76 106 89 125 13 19 68 81 122 136 54 56 145 152 203
214 58 62 155 163 215 225 165 169 414 431 603 635 33 36 99 106 147 155 48
50 109 115 135 145 26 30 88 96 136 146 140 143 189 197 209 227 24 37 15 34
-36 -13z"/>
<path d="M1859 6818 c-120 -8 -169 -27 -169 -62 0 -34 33 -66 68 -66 59 0 94
-79 87 -200 -8 -124 -8 -133 -6 -160 2 -14 0 -97 -4 -185 -4 -112 -3 -173 6
-203 9 -32 9 -46 0 -55 -6 -6 -11 -28 -11 -49 0 -29 -6 -41 -27 -55 -49 -34
-93 -81 -93 -101 0 -11 12 -30 26 -41 30 -24 101 -28 195 -12 30 6 137 12 239
16 325 9 354 13 384 44 19 19 33 56 51 125 29 114 31 180 9 235 -18 46 -43 58
-84 41 -26 -11 -28 -16 -35 -90 -4 -43 -4 -92 0 -108 8 -38 -25 -96 -63 -110
-34 -13 -382 -22 -430 -11 -53 12 -76 44 -67 94 4 22 8 90 9 150 l1 110 35 17
c43 22 167 25 195 5 12 -9 21 -34 26 -72 9 -68 38 -107 67 -89 29 19 37 69 24
163 -7 47 -10 116 -7 154 3 37 1 75 -4 85 -6 11 -5 23 3 34 12 17 10 74 -3 82
-3 2 -25 7 -48 11 l-43 7 0 -84 c0 -118 -2 -120 -133 -125 -97 -3 -107 -2
-117 16 -6 11 -10 87 -10 176 l0 156 30 10 c17 6 30 17 30 25 0 17 22 18 38 2
18 -18 286 -10 393 12 83 16 84 14 82 -107 -2 -121 11 -167 52 -183 38 -15 43
-13 61 21 11 22 14 43 10 68 -4 20 -8 48 -9 63 -1 14 -5 30 -9 34 -5 4 -8 32
-8 61 0 60 -15 96 -55 133 l-27 25 -281 0 c-155 0 -325 -3 -378 -7z m118 -563
c22 -15 31 -49 15 -59 -9 -5 -95 59 -101 76 -5 15 56 2 86 -17z"/>
<path d="M10553 6810 c-3 -10 -13 -22 -22 -25 -23 -7 -111 -110 -111 -130 0
-8 -7 -18 -15 -21 -8 -3 -24 -22 -36 -42 -12 -21 -43 -59 -69 -87 -26 -27 -60
-70 -75 -95 -16 -24 -38 -53 -51 -63 -13 -10 -21 -24 -18 -32 7 -18 -60 -102
-88 -111 -38 -12 -78 -145 -63 -213 10 -47 55 -67 115 -52 41 10 72 12 235 14
28 0 85 -3 129 -8 l79 -8 -7 -59 c-3 -32 -13 -69 -22 -83 -16 -25 -67 -45
-115 -45 -63 0 -108 -84 -58 -110 29 -16 77 -3 95 26 21 31 46 32 42 2 -2 -15
5 -27 24 -37 25 -15 28 -14 41 3 11 15 18 16 34 8 12 -7 39 -8 69 -4 27 4 65
3 85 -2 26 -7 59 -6 108 3 l70 13 -5 31 c-9 53 -12 57 -50 73 -26 11 -40 12
-47 5 -6 -6 -32 -11 -57 -11 -45 0 -47 1 -68 45 -27 56 -28 95 -3 126 16 20
27 23 75 21 54 -2 56 -1 56 23 0 28 14 33 28 10 7 -14 11 -14 39 0 24 12 29
20 25 40 -7 36 -22 44 -108 55 -43 6 -86 12 -95 15 -31 10 -38 49 -33 206 3
112 0 170 -11 217 -8 35 -12 69 -8 75 4 7 8 54 9 106 2 87 0 96 -22 118 -30
30 -93 33 -101 3z m35 -223 c16 -35 20 -53 12 -66 -5 -10 -9 -38 -9 -62 -1
-143 -11 -261 -26 -312 -18 -63 -22 -66 -124 -93 -49 -13 -56 -13 -73 2 -14
14 -35 17 -96 16 -53 -2 -84 2 -97 11 -18 14 -18 16 9 68 16 30 43 70 61 89
32 34 65 89 65 109 0 6 10 21 23 34 89 95 107 118 107 137 0 11 4 20 9 20 5 0
25 23 46 51 44 61 62 61 93 -4z m-350 -329 c-6 -18 -28 -21 -28 -4 0 9 7 16
16 16 9 0 14 -5 12 -12z m412 -413 c0 -8 -6 -15 -14 -15 -17 0 -28 14 -19 24
12 12 33 6 33 -9z"/>
<path d="M899 6422 c-19 -21 -50 -58 -69 -82 -19 -23 -41 -49 -47 -56 -7 -7
-13 -17 -13 -21 0 -5 -13 -22 -30 -38 -16 -15 -32 -41 -35 -57 -11 -50 3 -56
120 -51 l105 5 0 -29 c0 -37 -16 -53 -52 -53 -31 0 -48 -24 -29 -43 9 -9 17
-8 33 2 12 7 23 9 27 4 3 -5 38 -9 76 -8 95 2 95 2 95 25 0 20 -8 24 -48 20
-28 -2 -52 16 -52 41 0 18 32 43 43 33 3 -3 12 -2 19 2 7 5 17 9 23 9 5 0 11
8 13 18 3 12 -3 17 -22 17 -13 0 -35 4 -48 9 -23 9 -24 12 -26 141 -1 72 -4
135 -7 141 -13 19 -44 8 -76 -29z m45 -125 c-8 -115 -12 -126 -47 -135 -18 -5
-39 -6 -47 -1 -8 4 -27 5 -41 2 -15 -3 -30 0 -33 6 -7 11 23 71 35 71 4 0 10
8 13 18 3 9 18 32 33 49 16 17 37 44 47 59 18 25 20 25 32 10 8 -11 11 -39 8
-79z"/>
<path d="M11862 6445 c-24 -10 -39 -12 -52 -5 -28 15 -30 13 -30 -24 0 -19 -4
-38 -10 -41 -5 -3 -10 -22 -10 -41 0 -44 18 -41 42 6 29 57 39 62 89 49 24 -6
60 -13 79 -14 19 -2 39 -3 43 -4 5 0 -2 -20 -15 -43 -14 -24 -34 -59 -44 -78
-47 -82 -75 -166 -72 -211 2 -29 8 -44 17 -44 15 0 46 75 56 138 8 46 50 138
94 207 16 25 30 58 30 74 1 28 1 29 -45 22 -31 -4 -54 -1 -74 9 -36 18 -55 18
-98 0z"/>
<path d="M2311 3504 c0 -11 3 -14 6 -6 3 7 2 16 -1 19 -3 4 -6 -2 -5 -13z"/>
<path d="M6405 3060 c-22 -3 -51 -12 -63 -19 -13 -7 -35 -10 -48 -7 -14 4 -24
2 -24 -4 0 -5 -6 -10 -13 -10 -17 0 -77 -62 -77 -79 0 -7 -7 -19 -15 -28 -8
-8 -13 -19 -9 -24 3 -5 -4 -44 -16 -87 -29 -106 -33 -311 -7 -361 9 -19 15
-43 11 -53 -3 -11 2 -31 13 -46 10 -15 23 -40 29 -57 6 -17 23 -36 40 -44 16
-8 34 -21 39 -28 12 -16 135 -53 178 -53 56 0 173 70 162 98 -2 7 4 12 15 12
12 0 20 7 20 16 0 11 -5 14 -16 10 -10 -4 -14 -1 -11 6 2 7 15 13 28 12 29 -1
48 22 49 57 0 14 4 29 9 35 14 15 24 94 12 94 -6 0 -11 5 -11 10 0 6 9 10 20
10 23 0 26 10 8 28 -9 9 -9 17 2 36 10 20 10 28 1 40 -9 11 -9 19 0 33 9 15 8
26 -5 50 -9 19 -14 43 -10 61 4 19 -1 39 -15 63 -12 19 -21 44 -21 55 0 12
-10 34 -22 49 -12 16 -22 38 -23 49 0 14 -10 23 -30 29 -16 5 -42 15 -56 23
-40 20 -100 30 -144 24z m97 -85 c15 -4 30 -15 33 -26 3 -10 20 -29 36 -43 49
-42 78 -120 79 -218 1 -85 -24 -256 -41 -272 -5 -6 -9 -18 -9 -27 0 -9 -11
-24 -24 -33 -14 -8 -27 -24 -30 -34 -13 -40 -187 -49 -253 -13 -33 18 -93 89
-93 111 0 12 -3 19 -7 17 -5 -3 -6 22 -5 54 3 42 -1 67 -12 84 -16 25 -15 39
12 92 14 29 14 33 -1 57 -22 33 -21 39 3 31 16 -5 20 -2 20 17 0 13 11 47 25
76 14 30 25 58 25 63 0 14 33 49 46 49 7 0 14 3 16 8 2 4 30 14 63 23 48 12
63 12 75 3 8 -7 27 -15 42 -19z m218 -310 c0 -8 -4 -15 -9 -15 -13 0 -22 16
-14 24 11 11 23 6 23 -9z m-160 -415 c0 -12 -28 -25 -36 -17 -9 9 6 27 22 27
8 0 14 -5 14 -10z"/>
<path d="M9312 2426 c-30 -28 -471 -467 -980 -976 -1019 -1018 -984 -985
-1232 -1107 -147 -72 -238 -108 -315 -123 -175 -35 -222 -40 -375 -41 -185 0
-266 10 -460 59 -51 13 -272 102 -290 117 -8 7 -44 29 -80 49 -36 21 -81 47
-100 59 -65 39 -223 184 -502 459 -152 150 -431 424 -620 608 -188 184 -397
389 -464 455 -217 216 -388 379 -433 413 -25 17 -41 32 -35 32 5 0 2 4 -6 9
-35 23 -23 -3 29 -61 129 -143 240 -250 252 -242 8 4 10 3 5 -5 -5 -7 59 -76
170 -184 97 -94 289 -284 426 -420 151 -150 255 -246 264 -243 7 3 11 0 8 -7
-2 -7 98 -111 223 -232 124 -121 284 -277 354 -346 169 -166 253 -242 306
-276 15 -9 30 -20 33 -24 20 -24 185 -110 315 -164 323 -134 752 -149 1085
-39 112 37 349 158 451 230 114 81 131 96 385 354 117 118 462 465 766 771
670 674 761 768 820 841 26 31 49 54 52 51 3 -4 6 3 6 15 0 12 -1 22 -2 21 -2
-1 -27 -24 -56 -53z"/>
<path d="M6355 1500 c-4 -6 -23 -9 -43 -8 -36 3 -36 3 -43 -44 -4 -26 -10 -51
-13 -57 -3 -5 -3 -16 0 -25 9 -24 40 -2 54 39 14 41 40 51 96 36 22 -6 56 -11
77 -11 20 0 37 -4 37 -9 0 -6 -17 -38 -37 -73 -63 -106 -103 -208 -103 -260 0
-39 3 -48 18 -48 19 0 62 104 62 152 0 25 29 86 98 208 48 84 38 115 -29 91
-24 -8 -37 -7 -59 4 -33 17 -106 20 -115 5z"/>
</g>
</svg>
